<svg xmlns="http://www.w3.org/2000/svg" xmlns:xlink="http://www.w3.org/1999/xlink" width="100%" height="100%" viewBox="0 0 411 365"><defs><=<style>@import url('https://fonts.googleapis.com/css2?family=Noto+Serif+SC:wght@900&display=swap');=.a{opacity:0.999;}.b{fill:url(#a);}.c{fill:url(#b);}.d{fill:#fff;}.e{fill:url(#ag);}.f{fill:url(#bk);}.g{fill:url(#bl);}.h{fill:url(#bm);}.i{fill:url(#bn);}.j{fill:#2e2e00;font-size:90px;font-family:Noto Serif SC;font-weight:800;}.k{fill:#ced8ac;stroke:#2e2e00;stroke-width:3px;}.l{stroke:none;}.m{fill:none;}.n{filter:url(#bi);}.o{filter:url(#bg);}.p{filter:url(#be);}.q{filter:url(#bc);}.r{filter:url(#ba);}.s{filter:url(#ay);}.t{filter:url(#aw);}.u{filter:url(#at);}.v{filter:url(#aq);}.w{filter:url(#an);}.x{filter:url(#ak);}.y{filter:url(#ah);}.z{filter:url(#ae);}.aa{filter:url(#ac);}.ab{filter:url(#aa);}.ac{filter:url(#y);}.ad{filter:url(#w);}.ae{filter:url(#u);}.af{filter:url(#s);}.ag{filter:url(#q);}.ah{filter:url(#o);}.ai{filter:url(#m);}.aj{filter:url(#k);}.ak{filter:url(#i);}.al{filter:url(#g);}.am{filter:url(#e);}.an{filter:url(#c);}</style><linearGradient id="a" x1="0.5" x2="0.5" y2="1" gradientUnits="objectBoundingBox"><stop offset="0" stop-color="#00dead"/><stop offset="0.126" stop-color="#00dead"/><stop offset="0.833" stop-color="#ffcc95"/><stop offset="0.982" stop-color="#ffcc95"/></linearGradient><linearGradient id="b" x1="0.5" x2="0.5" y2="1" gradientUnits="objectBoundingBox"><stop offset="0" stop-color="#ff5151"/><stop offset="0.121" stop-color="#ff5151"/><stop offset="0.972" stop-color="#f9ec1b"/><stop offset="1" stop-color="#f9f119"/></linearGradient><filter id="c" x="229.39" y="180" width="106" height="39" filterUnits="userSpaceOnUse"><feOffset dx="1" dy="1" input="SourceAlpha"/><feGaussianBlur stdDeviation="1" result="d"/><feFlood flood-color="#9b9b9b" flood-opacity="0.098"/><feComposite operator="in" in2="d"/><feComposite in="SourceGraphic"/></filter><filter id="e" x="253.39" y="160" width="41" height="40" filterUnits="userSpaceOnUse"><feOffset dx="1" dy="1" input="SourceAlpha"/><feGaussianBlur stdDeviation="1" result="f"/><feFlood flood-color="#9b9b9b" flood-opacity="0.098"/><feComposite operator="in" in2="f"/><feComposite in="SourceGraphic"/></filter><filter id="g" x="274.39" y="165" width="55" height="43" filterUnits="userSpaceOnUse"><feOffset dx="1" dy="1" input="SourceAlpha"/><feGaussianBlur stdDeviation="1" result="h"/><feFlood flood-color="#9b9b9b" flood-opacity="0.098"/><feComposite operator="in" in2="h"/><feComposite in="SourceGraphic"/></filter><filter id="i" x="227.39" y="178" width="106" height="39" filterUnits="userSpaceOnUse"><feOffset dx="-1" dy="-1" input="SourceAlpha"/><feGaussianBlur stdDeviation="1" result="j"/><feFlood flood-color="#9b9b9b" flood-opacity="0.098"/><feComposite operator="in" in2="j"/><feComposite in="SourceGraphic"/></filter><filter id="k" x="251.39" y="158" width="41" height="40" filterUnits="userSpaceOnUse"><feOffset dx="-1" dy="-1" input="SourceAlpha"/><feGaussianBlur stdDeviation="1" result="l"/><feFlood flood-color="#9b9b9b" flood-opacity="0.098"/><feComposite operator="in" in2="l"/><feComposite in="SourceGraphic"/></filter><filter id="m" x="272.39" y="163" width="55" height="43" filterUnits="userSpaceOnUse"><feOffset dx="-1" dy="-1" input="SourceAlpha"/><feGaussianBlur stdDeviation="1" result="n"/><feFlood flood-color="#9b9b9b" flood-opacity="0.098"/><feComposite operator="in" in2="n"/><feComposite in="SourceGraphic"/></filter><filter id="o" x="242.535" y="145.729" width="32.094" height="15.606" filterUnits="userSpaceOnUse"><feOffset dx="1" dy="1" input="SourceAlpha"/><feGaussianBlur stdDeviation="1" result="p"/><feFlood flood-color="#9b9b9b" flood-opacity="0.098"/><feComposite operator="in" in2="p"/><feComposite in="SourceGraphic"/></filter><filter id="q" x="248.385" y="140.941" width="16.139" height="14.761" filterUnits="userSpaceOnUse"><feOffset dx="1" dy="1" input="SourceAlpha"/><feGaussianBlur stdDeviation="1" result="r"/><feFlood flood-color="#9b9b9b" flood-opacity="0.098"/><feComposite operator="in" in2="r"/><feComposite in="SourceGraphic"/></filter><filter id="s" x="254.518" y="142.005" width="18.486" height="15.856" filterUnits="userSpaceOnUse"><feOffset dx="1" dy="1" input="SourceAlpha"/><feGaussianBlur stdDeviation="1" result="t"/><feFlood flood-color="#9b9b9b" flood-opacity="0.098"/><feComposite operator="in" in2="t"/><feComposite in="SourceGraphic"/></filter><filter id="u" x="240.535" y="143.729" width="32.094" height="15.606" filterUnits="userSpaceOnUse"><feOffset dx="-1" dy="-1" input="SourceAlpha"/><feGaussianBlur stdDeviation="1" result="v"/><feFlood flood-color="#9b9b9b" flood-opacity="0.098"/><feComposite operator="in" in2="v"/><feComposite in="SourceGraphic"/></filter><filter id="w" x="246.385" y="138.941" width="16.139" height="14.761" filterUnits="userSpaceOnUse"><feOffset dx="-1" dy="-1" input="SourceAlpha"/><feGaussianBlur stdDeviation="1" result="x"/><feFlood flood-color="#9b9b9b" flood-opacity="0.098"/><feComposite operator="in" in2="x"/><feComposite in="SourceGraphic"/></filter><filter id="y" x="252.518" y="140.005" width="18.486" height="15.856" filterUnits="userSpaceOnUse"><feOffset dx="-1" dy="-1" input="SourceAlpha"/><feGaussianBlur stdDeviation="1" result="z"/><feFlood flood-color="#9b9b9b" flood-opacity="0.098"/><feComposite operator="in" in2="z"/><feComposite in="SourceGraphic"/></filter><filter id="aa" x="209.494" y="151.739" width="32.094" height="15.606" filterUnits="userSpaceOnUse"><feOffset dx="1" dy="-1" input="SourceAlpha"/><feGaussianBlur stdDeviation="1" result="ab"/><feFlood flood-color="#9b9b9b" flood-opacity="0.098"/><feComposite operator="in" in2="ab"/><feComposite in="SourceGraphic"/></filter><filter id="ac" x="215.344" y="146.951" width="16.139" height="14.761" filterUnits="userSpaceOnUse"><feOffset dx="1" dy="-1" input="SourceAlpha"/><feGaussianBlur stdDeviation="1" result="ad"/><feFlood flood-color="#9b9b9b" flood-opacity="0.098"/><feComposite operator="in" in2="ad"/><feComposite in="SourceGraphic"/></filter><filter id="ae" x="221.477" y="148.015" width="18.486" height="15.856" filterUnits="userSpaceOnUse"><feOffset dx="1" dy="-1" input="SourceAlpha"/><feGaussianBlur stdDeviation="1" result="af"/><feFlood flood-color="#9b9b9b" flood-opacity="0.098"/><feComposite operator="in" in2="af"/><feComposite in="SourceGraphic"/></filter><radialGradient id="ag" cx="0.5" cy="0.5" r="1.479" gradientTransform="matrix(0.696, 0.718, -0.686, 0.665, 0.495, -0.191)" gradientUnits="objectBoundingBox"><stop offset="0" stop-color="#f8e9c5"/><stop offset="1" stop-color="#fff"/></radialGradient><filter id="ah" x="137.843" y="130.553" width="42.575" height="19.455" filterUnits="userSpaceOnUse"><feOffset dx="1" dy="1" input="SourceAlpha"/><feGaussianBlur stdDeviation="1" result="ai"/><feFlood flood-color="#9b9b9b" flood-opacity="0.098"/><feComposite operator="in" in2="ai"/><feComposite in="SourceGraphic"/></filter><filter id="ak" x="146.041" y="123.858" width="20.206" height="18.297" filterUnits="userSpaceOnUse"><feOffset dx="1" dy="1" input="SourceAlpha"/><feGaussianBlur stdDeviation="1" result="al"/><feFlood flood-color="#9b9b9b" flood-opacity="0.098"/><feComposite operator="in" in2="al"/><feComposite in="SourceGraphic"/></filter><filter id="an" x="154.645" y="125.36" width="23.522" height="19.799" filterUnits="userSpaceOnUse"><feOffset dx="1" dy="1" input="SourceAlpha"/><feGaussianBlur stdDeviation="1" result="ao"/><feFlood flood-color="#9b9b9b" flood-opacity="0.098"/><feComposite operator="in" in2="ao"/><feComposite in="SourceGraphic"/></filter><filter id="aq" x="135.843" y="128.553" width="42.575" height="19.455" filterUnits="userSpaceOnUse"><feOffset dx="-1" dy="-1" input="SourceAlpha"/><feGaussianBlur stdDeviation="1" result="ar"/><feFlood flood-color="#9b9b9b" flood-opacity="0.098"/><feComposite operator="in" in2="ar"/><feComposite in="SourceGraphic"/></filter><filter id="at" x="144.041" y="121.858" width="20.206" height="18.297" filterUnits="userSpaceOnUse"><feOffset dx="-1" dy="-1" input="SourceAlpha"/><feGaussianBlur stdDeviation="1" result="au"/><feFlood flood-color="#9b9b9b" flood-opacity="0.098"/><feComposite operator="in" in2="au"/><feComposite in="SourceGraphic"/></filter><filter id="aw" x="152.645" y="123.36" width="23.522" height="19.799" filterUnits="userSpaceOnUse"><feOffset dx="-1" dy="-1" input="SourceAlpha"/><feGaussianBlur stdDeviation="1" result="ax"/><feFlood flood-color="#9b9b9b" flood-opacity="0.098"/><feComposite operator="in" in2="ax"/><feComposite in="SourceGraphic"/></filter><filter id="ay" x="71" y="199.577" width="52.057" height="23.398" filterUnits="userSpaceOnUse"><feOffset dx="1" dy="1" input="SourceAlpha"/><feGaussianBlur stdDeviation="1" result="az"/><feFlood flood-color="#9b9b9b" flood-opacity="0.098"/><feComposite operator="in" in2="az"/><feComposite in="SourceGraphic"/></filter><filter id="ba" x="81.325" y="190.941" width="23.898" height="21.896" filterUnits="userSpaceOnUse"><feOffset dx="1" dy="1" input="SourceAlpha"/><feGaussianBlur stdDeviation="1" result="bb"/><feFlood flood-color="#9b9b9b" flood-opacity="0.098"/><feComposite operator="in" in2="bb"/><feComposite in="SourceGraphic"/></filter><filter id="bc" x="92.151" y="192.882" width="28.057" height="23.834" filterUnits="userSpaceOnUse"><feOffset dx="1" dy="1" input="SourceAlpha"/><feGaussianBlur stdDeviation="1" result="bd"/><feFlood flood-color="#9b9b9b" flood-opacity="0.098"/><feComposite operator="in" in2="bd"/><feComposite in="SourceGraphic"/></filter><filter id="be" x="69" y="197.577" width="52.057" height="23.398" filterUnits="userSpaceOnUse"><feOffset dx="-1" dy="-1" input="SourceAlpha"/><feGaussianBlur stdDeviation="1" result="bf"/><feFlood flood-color="#9b9b9b" flood-opacity="0.098"/><feComposite operator="in" in2="bf"/><feComposite in="SourceGraphic"/></filter><filter id="bg" x="79.325" y="188.941" width="23.898" height="21.896" filterUnits="userSpaceOnUse"><feOffset dx="-1" dy="-1" input="SourceAlpha"/><feGaussianBlur stdDeviation="1" result="bh"/><feFlood flood-color="#9b9b9b" flood-opacity="0.098"/><feComposite operator="in" in2="bh"/><feComposite in="SourceGraphic"/></filter><filter id="bi" x="90.151" y="190.882" width="28.057" height="23.834" filterUnits="userSpaceOnUse"><feOffset dx="-1" dy="-1" input="SourceAlpha"/><feGaussianBlur stdDeviation="1" result="bj"/><feFlood flood-color="#9b9b9b" flood-opacity="0.098"/><feComposite operator="in" in2="bj"/><feComposite in="SourceGraphic"/></filter><linearGradient id="bk" y1="0.642" x2="0.813" y2="0.053" gradientUnits="objectBoundingBox"><stop offset="0" stop-color="#151500"/><stop offset="1" stop-color="#454500"/></linearGradient><linearGradient id="bl" x1="0.347" y1="0.62" x2="1.29" y2="0.414" xlink:href="#bk"/><linearGradient id="bm" x1="0.058" y1="0.887" x2="1.268" y2="0.24" xlink:href="#bk"/><linearGradient id="bn" x1="0" y1="0.642" x2="1.29" y2="0.414" xlink:href="#bk"/></defs><g transform="translate(-603.5 -34)"><g class="a" transform="translate(667.89 35)"><circle class="b" cx="128" cy="128" r="128" transform="translate(6 -1)"/><g transform="translate(-4 124.858)"><circle class="c" cx="12" cy="12" r="12" transform="translate(171 8.142)"/><g transform="translate(170.712 35.924)"><g transform="translate(0 0)"><g class="an" transform="matrix(1, 0, 0, 1, -231.1, -161.78)"><ellipse class="d" cx="50" cy="16.5" rx="50" ry="16.5" transform="translate(231.39 182)"/></g><g class="am" transform="matrix(1, 0, 0, 1, -231.1, -161.78)"><ellipse class="d" cx="17.5" cy="17" rx="17.5" ry="17" transform="translate(255.39 162)"/></g><g class="al" transform="matrix(1, 0, 0, 1, -231.1, -161.78)"><ellipse class="d" cx="24.5" cy="18.5" rx="24.5" ry="18.5" transform="translate(276.39 167)"/></g><g class="ak" transform="matrix(1, 0, 0, 1, -231.1, -161.78)"><ellipse class="d" cx="50" cy="16.5" rx="50" ry="16.5" transform="translate(231.39 182)"/></g><g class="aj" transform="matrix(1, 0, 0, 1, -231.1, -161.78)"><ellipse class="d" cx="17.5" cy="17" rx="17.5" ry="17" transform="translate(255.39 162)"/></g><g class="ai" transform="matrix(1, 0, 0, 1, -231.1, -161.78)"><ellipse class="d" cx="24.5" cy="18.5" rx="24.5" ry="18.5" transform="translate(276.39 167)"/></g></g><ellipse class="d" cx="50" cy="16.5" rx="50" ry="16.5" transform="translate(0.288 20.218)"/><ellipse class="d" cx="17.5" cy="17" rx="17.5" ry="17" transform="translate(24.288 0.218)"/><ellipse class="d" cx="24.5" cy="18.5" rx="24.5" ry="18.5" transform="translate(45.288 5.218)"/></g><g transform="translate(184.145 17.083)"><g transform="translate(0 0)"><g class="ah" transform="matrix(1, 0, 0, 1, -244.54, -142.94)"><ellipse class="d" cx="13.047" cy="4.803" rx="13.047" ry="4.803" transform="translate(244.54 147.73)"/></g><g class="ag" transform="matrix(1, 0, 0, 1, -244.54, -142.94)"><ellipse class="d" cx="5.069" cy="4.38" rx="5.069" ry="4.38" transform="translate(250.39 142.94)"/></g><g class="af" transform="matrix(1, 0, 0, 1, -244.54, -142.94)"><ellipse class="d" cx="6.243" cy="4.928" rx="6.243" ry="4.928" transform="translate(256.52 144.01)"/></g><g class="ae" transform="matrix(1, 0, 0, 1, -244.54, -142.94)"><ellipse class="d" cx="13.047" cy="4.803" rx="13.047" ry="4.803" transform="translate(244.54 147.73)"/></g><g class="ad" transform="matrix(1, 0, 0, 1, -244.54, -142.94)"><ellipse class="d" cx="5.069" cy="4.38" rx="5.069" ry="4.38" transform="translate(250.39 142.94)"/></g><g class="ac" transform="matrix(1, 0, 0, 1, -244.54, -142.94)"><ellipse class="d" cx="6.243" cy="4.928" rx="6.243" ry="4.928" transform="translate(256.52 144.01)"/></g></g><ellipse class="d" cx="13.047" cy="4.803" rx="13.047" ry="4.803" transform="translate(0 4.788)"/><ellipse class="d" cx="5.069" cy="4.38" rx="5.069" ry="4.38" transform="translate(5.85 0)"/><ellipse class="d" cx="6.243" cy="4.928" rx="6.243" ry="4.928" transform="translate(11.983 1.064)"/></g><g transform="translate(151.104 25.093)"><g transform="translate(0 0)"><g class="ab" transform="matrix(1, 0, 0, 1, -211.49, -150.95)"><ellipse class="d" cx="13.047" cy="4.803" rx="13.047" ry="4.803" transform="translate(211.49 155.74)"/></g><g class="aa" transform="matrix(1, 0, 0, 1, -211.49, -150.95)"><ellipse class="d" cx="5.069" cy="4.38" rx="5.069" ry="4.38" transform="translate(217.34 150.95)"/></g><g class="z" transform="matrix(1, 0, 0, 1, -211.49, -150.95)"><ellipse class="d" cx="6.243" cy="4.928" rx="6.243" ry="4.928" transform="translate(223.48 152.02)"/></g></g><ellipse class="d" cx="13.047" cy="4.803" rx="13.047" ry="4.803" transform="translate(0 4.788)"/><ellipse class="d" cx="5.069" cy="4.38" rx="5.069" ry="4.38" transform="translate(5.85 0)"/><ellipse class="d" cx="6.243" cy="4.928" rx="6.243" ry="4.928" transform="translate(11.983 1.064)"/></g><g transform="translate(79.453 0)"><g transform="translate(0)"><g class="y" transform="matrix(1, 0, 0, 1, -139.84, -125.86)"><ellipse class="e" cx="18.288" cy="6.727" rx="18.288" ry="6.727" transform="translate(139.84 132.55)"/></g><g class="x" transform="matrix(1, 0, 0, 1, -139.84, -125.86)"><ellipse class="e" cx="7.103" cy="6.149" rx="7.103" ry="6.149" transform="translate(148.04 125.86)"/></g><g class="w" transform="matrix(1, 0, 0, 1, -139.84, -125.86)"><ellipse class="e" cx="8.761" cy="6.9" rx="8.761" ry="6.9" transform="translate(156.64 127.36)"/></g><g class="v" transform="matrix(1, 0, 0, 1, -139.84, -125.86)"><ellipse class="e" cx="18.288" cy="6.727" rx="18.288" ry="6.727" transform="translate(139.84 132.55)"/></g><g class="u" transform="matrix(1, 0, 0, 1, -139.84, -125.86)"><ellipse class="e" cx="7.103" cy="6.149" rx="7.103" ry="6.149" transform="translate(148.04 125.86)"/></g><g class="t" transform="matrix(1, 0, 0, 1, -139.84, -125.86)"><ellipse class="e" cx="8.761" cy="6.9" rx="8.761" ry="6.9" transform="translate(156.64 127.36)"/></g></g><ellipse class="d" cx="18.288" cy="6.727" rx="18.288" ry="6.727" transform="translate(0 6.695)"/><ellipse class="d" cx="7.103" cy="6.149" rx="7.103" ry="6.149" transform="translate(8.198)"/><ellipse class="d" cx="8.761" cy="6.9" rx="8.761" ry="6.9" transform="translate(16.802 1.502)"/></g><g transform="translate(8 64.141)"><g class="s" transform="matrix(1, 0, 0, 1, -68.39, -190)"><ellipse class="d" cx="23.029" cy="8.699" rx="23.029" ry="8.699" transform="translate(73 201.58)"/></g><g class="r" transform="matrix(1, 0, 0, 1, -68.39, -190)"><ellipse class="d" cx="8.949" cy="7.948" rx="8.949" ry="7.948" transform="translate(83.32 192.94)"/></g><g class="q" transform="matrix(1, 0, 0, 1, -68.39, -190)"><ellipse class="d" cx="11.029" cy="8.917" rx="11.029" ry="8.917" transform="translate(94.15 194.88)"/></g><g class="p" transform="matrix(1, 0, 0, 1, -68.39, -190)"><ellipse class="d" cx="23.029" cy="8.699" rx="23.029" ry="8.699" transform="translate(73 201.58)"/></g><g class="o" transform="matrix(1, 0, 0, 1, -68.39, -190)"><ellipse class="d" cx="8.949" cy="7.948" rx="8.949" ry="7.948" transform="translate(83.32 192.94)"/></g><g class="n" transform="matrix(1, 0, 0, 1, -68.39, -190)"><ellipse class="d" cx="11.029" cy="8.917" rx="11.029" ry="8.917" transform="translate(94.15 194.88)"/></g><ellipse class="d" cx="23.029" cy="8.699" rx="23.029" ry="8.699" transform="translate(4.61 11.579)"/><ellipse class="d" cx="8.949" cy="7.948" rx="8.949" ry="7.948" transform="translate(14.935 2.943)"/><ellipse class="d" cx="11.029" cy="8.917" rx="11.029" ry="8.917" transform="translate(25.761 4.883)"/></g></g><g transform="translate(42.275 127.345)"><g transform="translate(0 0)"><path class="f" d="M1,70.47C1,31.55,8.816,0,18.456,0S35.912,31.55,35.912,70.47q0,2.548-.044,5.048A128.151,128.151,0,0,1,2.328,97.475,265.987,265.987,0,0,1,1,70.47Z" transform="translate(141.796 18.998)"/><path class="g" d="M480.873,524.436c0-35.928,8.1-65.053,18.087-65.053s18.086,29.125,18.086,65.053c0,3.993-.1,7.9-.292,11.7a127.212,127.212,0,0,1-34.473,13.523A218.584,218.584,0,0,1,480.873,524.436Z" transform="translate(-361.555 -425.298)"/><path class="h" d="M1.034,112.475C1.011,111.19,1,109.894,1,108.6,1,48.622,25.142,0,54.923,0s53.923,48.622,53.923,108.6q0,5.123-.231,10.126a127.636,127.636,0,0,1-47.065,8.93A127.448,127.448,0,0,1,1.034,112.475Z" transform="translate(30.176 0)"/><path class="i" d="M1.145,47.542C2.485,20.808,12.936,0,25.628,0c13.6,0,24.628,23.9,24.628,53.373a106.818,106.818,0,0,1-2.61,23.938A128.1,128.1,0,0,1,1.145,47.542Z" transform="translate(0 42.553)"/></g></g></g><g transform="translate(690.193 275.922)"><text class="j" transform="translate(116.307 97.078)"><tspan x="0" y="0">昇</tspan></text><text class="j" transform="translate(22.307 94.078)"><tspan x="0" y="0">日</tspan></text></g><g transform="translate(1299.5 -281) rotate(90)"><g transform="translate(384 174)"><g class="k" transform="translate(234 111)"><circle class="l" cx="24.5" cy="24.5" r="24.5"/><circle class="m" cx="24.5" cy="24.5" r="23"/></g><g class="k" transform="translate(240 117)"><circle class="l" cx="18.5" cy="18.5" r="18.5"/><circle class="m" cx="18.5" cy="18.5" r="17"/></g><g class="k" transform="translate(246 123)"><circle class="l" cx="12.5" cy="12.5" r="12.5"/><circle class="m" cx="12.5" cy="12.5" r="11"/></g><g class="k" transform="translate(252 129)"><circle class="l" cx="6.5" cy="6.5" r="6.5"/><circle class="m" cx="6.5" cy="6.5" r="5"/></g></g><g transform="translate(449 626) rotate(-90)"><g class="k" transform="translate(234 111)"><circle class="l" cx="24.5" cy="24.5" r="24.5"/><circle class="m" cx="24.5" cy="24.5" r="23"/></g><g class="k" transform="translate(240 117)"><circle class="l" cx="18.5" cy="18.5" r="18.5"/><circle class="m" cx="18.5" cy="18.5" r="17"/></g><g class="k" transform="translate(246 123)"><circle class="l" cx="12.5" cy="12.5" r="12.5"/><circle class="m" cx="12.5" cy="12.5" r="11"/></g><g class="k" transform="translate(252 129)"><circle class="l" cx="6.5" cy="6.5" r="6.5"/><circle class="m" cx="6.5" cy="6.5" r="5"/></g></g><g transform="translate(355 203)"><g class="k" transform="translate(234 111)"><circle class="l" cx="24.5" cy="24.5" r="24.5"/><circle class="m" cx="24.5" cy="24.5" r="23"/></g><g class="k" transform="translate(240 117)"><circle class="l" cx="18.5" cy="18.5" r="18.5"/><circle class="m" cx="18.5" cy="18.5" r="17"/></g><g class="k" transform="translate(246 123)"><circle class="l" cx="12.5" cy="12.5" r="12.5"/><circle class="m" cx="12.5" cy="12.5" r="11"/></g><g class="k" transform="translate(252 129)"><circle class="l" cx="6.5" cy="6.5" r="6.5"/><circle class="m" cx="6.5" cy="6.5" r="5"/></g></g><g transform="translate(384 203)"><g class="k" transform="translate(234 111)"><circle class="l" cx="24.5" cy="24.5" r="24.5"/><circle class="m" cx="24.5" cy="24.5" r="23"/></g><g class="k" transform="translate(240 117)"><circle class="l" cx="18.5" cy="18.5" r="18.5"/><circle class="m" cx="18.5" cy="18.5" r="17"/></g><g class="k" transform="translate(246 123)"><circle class="l" cx="12.5" cy="12.5" r="12.5"/><circle class="m" cx="12.5" cy="12.5" r="11"/></g><g class="k" transform="translate(252 129)"><circle class="l" cx="6.5" cy="6.5" r="6.5"/><circle class="m" cx="6.5" cy="6.5" r="5"/></g></g><g transform="translate(478 626) rotate(-90)"><g class="k" transform="translate(234 111)"><circle class="l" cx="24.5" cy="24.5" r="24.5"/><circle class="m" cx="24.5" cy="24.5" r="23"/></g><g class="k" transform="translate(240 117)"><circle class="l" cx="18.5" cy="18.5" r="18.5"/><circle class="m" cx="18.5" cy="18.5" r="17"/></g><g class="k" transform="translate(246 123)"><circle class="l" cx="12.5" cy="12.5" r="12.5"/><circle class="m" cx="12.5" cy="12.5" r="11"/></g><g class="k" transform="translate(252 129)"><circle class="l" cx="6.5" cy="6.5" r="6.5"/><circle class="m" cx="6.5" cy="6.5" r="5"/></g></g><g transform="translate(384 232)"><g class="k" transform="translate(234 111)"><circle class="l" cx="24.5" cy="24.5" r="24.5"/><circle class="m" cx="24.5" cy="24.5" r="23"/></g><g class="k" transform="translate(240 117)"><circle class="l" cx="18.5" cy="18.5" r="18.5"/><circle class="m" cx="18.5" cy="18.5" r="17"/></g><g class="k" transform="translate(246 123)"><circle class="l" cx="12.5" cy="12.5" r="12.5"/><circle class="m" cx="12.5" cy="12.5" r="11"/></g><g class="k" transform="translate(252 129)"><circle class="l" cx="6.5" cy="6.5" r="6.5"/><circle class="m" cx="6.5" cy="6.5" r="5"/></g></g></g><g transform="translate(43.5 -6)"><g transform="translate(384 174)"><g class="k" transform="translate(234 111)"><circle class="l" cx="24.5" cy="24.5" r="24.5"/><circle class="m" cx="24.5" cy="24.5" r="23"/></g><g class="k" transform="translate(240 117)"><circle class="l" cx="18.5" cy="18.5" r="18.5"/><circle class="m" cx="18.5" cy="18.5" r="17"/></g><g class="k" transform="translate(246 123)"><circle class="l" cx="12.5" cy="12.5" r="12.5"/><circle class="m" cx="12.5" cy="12.5" r="11"/></g><g class="k" transform="translate(252 129)"><circle class="l" cx="6.5" cy="6.5" r="6.5"/><circle class="m" cx="6.5" cy="6.5" r="5"/></g></g><g transform="translate(449 626) rotate(-90)"><g class="k" transform="translate(234 111)"><circle class="l" cx="24.5" cy="24.5" r="24.5"/><circle class="m" cx="24.5" cy="24.5" r="23"/></g><g class="k" transform="translate(240 117)"><circle class="l" cx="18.5" cy="18.5" r="18.5"/><circle class="m" cx="18.5" cy="18.5" r="17"/></g><g class="k" transform="translate(246 123)"><circle class="l" cx="12.5" cy="12.5" r="12.5"/><circle class="m" cx="12.5" cy="12.5" r="11"/></g><g class="k" transform="translate(252 129)"><circle class="l" cx="6.5" cy="6.5" r="6.5"/><circle class="m" cx="6.5" cy="6.5" r="5"/></g></g><g transform="translate(355 203)"><g class="k" transform="translate(234 111)"><circle class="l" cx="24.5" cy="24.5" r="24.5"/><circle class="m" cx="24.5" cy="24.5" r="23"/></g><g class="k" transform="translate(240 117)"><circle class="l" cx="18.5" cy="18.5" r="18.5"/><circle class="m" cx="18.5" cy="18.5" r="17"/></g><g class="k" transform="translate(246 123)"><circle class="l" cx="12.5" cy="12.5" r="12.5"/><circle class="m" cx="12.5" cy="12.5" r="11"/></g><g class="k" transform="translate(252 129)"><circle class="l" cx="6.5" cy="6.5" r="6.5"/><circle class="m" cx="6.5" cy="6.5" r="5"/></g></g><g transform="translate(384 203)"><g class="k" transform="translate(234 111)"><circle class="l" cx="24.5" cy="24.5" r="24.5"/><circle class="m" cx="24.5" cy="24.5" r="23"/></g><g class="k" transform="translate(240 117)"><circle class="l" cx="18.5" cy="18.5" r="18.5"/><circle class="m" cx="18.5" cy="18.5" r="17"/></g><g class="k" transform="translate(246 123)"><circle class="l" cx="12.5" cy="12.5" r="12.5"/><circle class="m" cx="12.5" cy="12.5" r="11"/></g><g class="k" transform="translate(252 129)"><circle class="l" cx="6.5" cy="6.5" r="6.5"/><circle class="m" cx="6.5" cy="6.5" r="5"/></g></g><g transform="translate(478 626) rotate(-90)"><g class="k" transform="translate(234 111)"><circle class="l" cx="24.5" cy="24.5" r="24.5"/><circle class="m" cx="24.5" cy="24.5" r="23"/></g><g class="k" transform="translate(240 117)"><circle class="l" cx="18.5" cy="18.5" r="18.5"/><circle class="m" cx="18.5" cy="18.5" r="17"/></g><g class="k" transform="translate(246 123)"><circle class="l" cx="12.5" cy="12.5" r="12.5"/><circle class="m" cx="12.5" cy="12.5" r="11"/></g><g class="k" transform="translate(252 129)"><circle class="l" cx="6.5" cy="6.5" r="6.5"/><circle class="m" cx="6.5" cy="6.5" r="5"/></g></g><g transform="translate(384 232)"><g class="k" transform="translate(234 111)"><circle class="l" cx="24.5" cy="24.5" r="24.5"/><circle class="m" cx="24.5" cy="24.5" r="23"/></g><g class="k" transform="translate(240 117)"><circle class="l" cx="18.5" cy="18.5" r="18.5"/><circle class="m" cx="18.5" cy="18.5" r="17"/></g><g class="k" transform="translate(246 123)"><circle class="l" cx="12.5" cy="12.5" r="12.5"/><circle class="m" cx="12.5" cy="12.5" r="11"/></g><g class="k" transform="translate(252 129)"><circle class="l" cx="6.5" cy="6.5" r="6.5"/><circle class="m" cx="6.5" cy="6.5" r="5"/></g></g></g></g></svg>