<svg xmlns="http://www.w3.org/2000/svg" xmlns:xlink="http://www.w3.org/1999/xlink" width="929" height="369" viewBox="0 0 929 369"><defs><linearGradient id="a" x1="0.5" x2="0.5" y2="1" gradientUnits="objectBoundingBox"><stop offset="0" stop-color="#ffcc95"/><stop offset="1" stop-color="#00dead"/></linearGradient><linearGradient id="c" x1="0.5" x2="0.5" y2="1" gradientUnits="objectBoundingBox"><stop offset="0" stop-color="#00dead"/><stop offset="0.126" stop-color="#00dead"/><stop offset="0.833" stop-color="#ffcc95"/><stop offset="0.982" stop-color="#ffcc95"/></linearGradient><linearGradient id="d" x1="0.5" x2="0.5" y2="1" gradientUnits="objectBoundingBox"><stop offset="0" stop-color="#ff5151"/><stop offset="0.121" stop-color="#ff5151"/><stop offset="0.972" stop-color="#f9ec1b"/><stop offset="1" stop-color="#f9f119"/></linearGradient><filter id="e" x="497" y="172" width="106" height="39" filterUnits="userSpaceOnUse"><feOffset dx="1" dy="1" input="SourceAlpha"/><feGaussianBlur stdDeviation="1" result="f"/><feFlood flood-color="#9b9b9b" flood-opacity="0.098"/><feComposite operator="in" in2="f"/><feComposite in="SourceGraphic"/></filter><filter id="g" x="521" y="152" width="41" height="40" filterUnits="userSpaceOnUse"><feOffset dx="1" dy="1" input="SourceAlpha"/><feGaussianBlur stdDeviation="1" result="h"/><feFlood flood-color="#9b9b9b" flood-opacity="0.098"/><feComposite operator="in" in2="h"/><feComposite in="SourceGraphic"/></filter><filter id="i" x="542" y="157" width="55" height="43" filterUnits="userSpaceOnUse"><feOffset dx="1" dy="1" input="SourceAlpha"/><feGaussianBlur stdDeviation="1" result="j"/><feFlood flood-color="#9b9b9b" flood-opacity="0.098"/><feComposite operator="in" in2="j"/><feComposite in="SourceGraphic"/></filter><filter id="k" x="495" y="170" width="106" height="39" filterUnits="userSpaceOnUse"><feOffset dx="-1" dy="-1" input="SourceAlpha"/><feGaussianBlur stdDeviation="1" result="l"/><feFlood flood-color="#9b9b9b" flood-opacity="0.098"/><feComposite operator="in" in2="l"/><feComposite in="SourceGraphic"/></filter><filter id="m" x="519" y="150" width="41" height="40" filterUnits="userSpaceOnUse"><feOffset dx="-1" dy="-1" input="SourceAlpha"/><feGaussianBlur stdDeviation="1" result="n"/><feFlood flood-color="#9b9b9b" flood-opacity="0.098"/><feComposite operator="in" in2="n"/><feComposite in="SourceGraphic"/></filter><filter id="o" x="540" y="155" width="55" height="43" filterUnits="userSpaceOnUse"><feOffset dx="-1" dy="-1" input="SourceAlpha"/><feGaussianBlur stdDeviation="1" result="p"/><feFlood flood-color="#9b9b9b" flood-opacity="0.098"/><feComposite operator="in" in2="p"/><feComposite in="SourceGraphic"/></filter><filter id="q" x="510.145" y="137.729" width="32.094" height="15.606" filterUnits="userSpaceOnUse"><feOffset dx="1" dy="1" input="SourceAlpha"/><feGaussianBlur stdDeviation="1" result="r"/><feFlood flood-color="#9b9b9b" flood-opacity="0.098"/><feComposite operator="in" in2="r"/><feComposite in="SourceGraphic"/></filter><filter id="s" x="515.995" y="132.941" width="16.139" height="14.761" filterUnits="userSpaceOnUse"><feOffset dx="1" dy="1" input="SourceAlpha"/><feGaussianBlur stdDeviation="1" result="t"/><feFlood flood-color="#9b9b9b" flood-opacity="0.098"/><feComposite operator="in" in2="t"/><feComposite in="SourceGraphic"/></filter><filter id="u" x="522.128" y="134.005" width="18.486" height="15.856" filterUnits="userSpaceOnUse"><feOffset dx="1" dy="1" input="SourceAlpha"/><feGaussianBlur stdDeviation="1" result="v"/><feFlood flood-color="#9b9b9b" flood-opacity="0.098"/><feComposite operator="in" in2="v"/><feComposite in="SourceGraphic"/></filter><filter id="w" x="508.145" y="135.729" width="32.094" height="15.606" filterUnits="userSpaceOnUse"><feOffset dx="-1" dy="-1" input="SourceAlpha"/><feGaussianBlur stdDeviation="1" result="x"/><feFlood flood-color="#9b9b9b" flood-opacity="0.098"/><feComposite operator="in" in2="x"/><feComposite in="SourceGraphic"/></filter><filter id="y" x="513.995" y="130.941" width="16.139" height="14.761" filterUnits="userSpaceOnUse"><feOffset dx="-1" dy="-1" input="SourceAlpha"/><feGaussianBlur stdDeviation="1" result="z"/><feFlood flood-color="#9b9b9b" flood-opacity="0.098"/><feComposite operator="in" in2="z"/><feComposite in="SourceGraphic"/></filter><filter id="aa" x="520.128" y="132.005" width="18.486" height="15.856" filterUnits="userSpaceOnUse"><feOffset dx="-1" dy="-1" input="SourceAlpha"/><feGaussianBlur stdDeviation="1" result="ab"/><feFlood flood-color="#9b9b9b" flood-opacity="0.098"/><feComposite operator="in" in2="ab"/><feComposite in="SourceGraphic"/></filter><filter id="ac" x="477.104" y="143.739" width="32.094" height="15.606" filterUnits="userSpaceOnUse"><feOffset dx="1" dy="-1" input="SourceAlpha"/><feGaussianBlur stdDeviation="1" result="ad"/><feFlood flood-color="#9b9b9b" flood-opacity="0.098"/><feComposite operator="in" in2="ad"/><feComposite in="SourceGraphic"/></filter><filter id="ae" x="482.954" y="138.951" width="16.139" height="14.761" filterUnits="userSpaceOnUse"><feOffset dx="1" dy="-1" input="SourceAlpha"/><feGaussianBlur stdDeviation="1" result="af"/><feFlood flood-color="#9b9b9b" flood-opacity="0.098"/><feComposite operator="in" in2="af"/><feComposite in="SourceGraphic"/></filter><filter id="ag" x="489.087" y="140.015" width="18.486" height="15.856" filterUnits="userSpaceOnUse"><feOffset dx="1" dy="-1" input="SourceAlpha"/><feGaussianBlur stdDeviation="1" result="ah"/><feFlood flood-color="#9b9b9b" flood-opacity="0.098"/><feComposite operator="in" in2="ah"/><feComposite in="SourceGraphic"/></filter><filter id="ai" x="405.453" y="122.553" width="42.575" height="19.455" filterUnits="userSpaceOnUse"><feOffset dx="1" dy="1" input="SourceAlpha"/><feGaussianBlur stdDeviation="1" result="aj"/><feFlood flood-color="#9b9b9b" flood-opacity="0.098"/><feComposite operator="in" in2="aj"/><feComposite in="SourceGraphic"/></filter><filter id="ak" x="413.651" y="115.858" width="20.206" height="18.297" filterUnits="userSpaceOnUse"><feOffset dx="1" dy="1" input="SourceAlpha"/><feGaussianBlur stdDeviation="1" result="al"/><feFlood flood-color="#9b9b9b" flood-opacity="0.098"/><feComposite operator="in" in2="al"/><feComposite in="SourceGraphic"/></filter><filter id="am" x="422.255" y="117.36" width="23.522" height="19.799" filterUnits="userSpaceOnUse"><feOffset dx="1" dy="1" input="SourceAlpha"/><feGaussianBlur stdDeviation="1" result="an"/><feFlood flood-color="#9b9b9b" flood-opacity="0.098"/><feComposite operator="in" in2="an"/><feComposite in="SourceGraphic"/></filter><filter id="ao" x="403.453" y="120.553" width="42.575" height="19.455" filterUnits="userSpaceOnUse"><feOffset dx="-1" dy="-1" input="SourceAlpha"/><feGaussianBlur stdDeviation="1" result="ap"/><feFlood flood-color="#9b9b9b" flood-opacity="0.098"/><feComposite operator="in" in2="ap"/><feComposite in="SourceGraphic"/></filter><filter id="aq" x="411.651" y="113.858" width="20.206" height="18.297" filterUnits="userSpaceOnUse"><feOffset dx="-1" dy="-1" input="SourceAlpha"/><feGaussianBlur stdDeviation="1" result="ar"/><feFlood flood-color="#9b9b9b" flood-opacity="0.098"/><feComposite operator="in" in2="ar"/><feComposite in="SourceGraphic"/></filter><filter id="as" x="420.255" y="115.36" width="23.522" height="19.799" filterUnits="userSpaceOnUse"><feOffset dx="-1" dy="-1" input="SourceAlpha"/><feGaussianBlur stdDeviation="1" result="at"/><feFlood flood-color="#9b9b9b" flood-opacity="0.098"/><feComposite operator="in" in2="at"/><feComposite in="SourceGraphic"/></filter><filter id="au" x="330.61" y="191.577" width="52.057" height="23.398" filterUnits="userSpaceOnUse"><feOffset dx="1" dy="1" input="SourceAlpha"/><feGaussianBlur stdDeviation="1" result="av"/><feFlood flood-color="#9b9b9b" flood-opacity="0.098"/><feComposite operator="in" in2="av"/><feComposite in="SourceGraphic"/></filter><filter id="aw" x="340.935" y="182.941" width="23.898" height="21.896" filterUnits="userSpaceOnUse"><feOffset dx="1" dy="1" input="SourceAlpha"/><feGaussianBlur stdDeviation="1" result="ax"/><feFlood flood-color="#9b9b9b" flood-opacity="0.098"/><feComposite operator="in" in2="ax"/><feComposite in="SourceGraphic"/></filter><filter id="ay" x="351.761" y="184.882" width="28.057" height="23.834" filterUnits="userSpaceOnUse"><feOffset dx="1" dy="1" input="SourceAlpha"/><feGaussianBlur stdDeviation="1" result="az"/><feFlood flood-color="#9b9b9b" flood-opacity="0.098"/><feComposite operator="in" in2="az"/><feComposite in="SourceGraphic"/></filter><filter id="ba" x="328.61" y="189.577" width="52.057" height="23.398" filterUnits="userSpaceOnUse"><feOffset dx="-1" dy="-1" input="SourceAlpha"/><feGaussianBlur stdDeviation="1" result="bb"/><feFlood flood-color="#9b9b9b" flood-opacity="0.098"/><feComposite operator="in" in2="bb"/><feComposite in="SourceGraphic"/></filter><filter id="bc" x="338.935" y="180.941" width="23.898" height="21.896" filterUnits="userSpaceOnUse"><feOffset dx="-1" dy="-1" input="SourceAlpha"/><feGaussianBlur stdDeviation="1" result="bd"/><feFlood flood-color="#9b9b9b" flood-opacity="0.098"/><feComposite operator="in" in2="bd"/><feComposite in="SourceGraphic"/></filter><filter id="be" x="349.761" y="182.882" width="28.057" height="23.834" filterUnits="userSpaceOnUse"><feOffset dx="-1" dy="-1" input="SourceAlpha"/><feGaussianBlur stdDeviation="1" result="bf"/><feFlood flood-color="#9b9b9b" flood-opacity="0.098"/><feComposite operator="in" in2="bf"/><feComposite in="SourceGraphic"/></filter><linearGradient id="bg" x1="1" y1="0.792" x2="-2.223" y2="-0.074" gradientUnits="objectBoundingBox"><stop offset="0" stop-color="#281e12"/><stop offset="1" stop-color="#fff"/></linearGradient><linearGradient id="bh" y1="0.897" x2="-3.414" y2="-1.01" xlink:href="#bg"/><linearGradient id="bi" x1="0.524" y1="1" x2="1.344" y2="-0.797" xlink:href="#bg"/><linearGradient id="bj" x1="0" y1="0.699" x2="1.654" y2="-0.323" xlink:href="#bg"/><linearGradient id="bk" x1="0.5" x2="0.5" y2="1" gradientUnits="objectBoundingBox"><stop offset="0" stop-color="#281e12"/><stop offset="1" stop-color="#2f1900"/></linearGradient></defs><g transform="translate(-337 -36)"><path d="M341.7,110H67.8a9.3,9.3,0,0,1,0-18.6H85.282a9.163,9.163,0,0,1-1.193-.083,9.8,9.8,0,0,0,1.26.082h25.276a9.3,9.3,0,0,0,0-18.6H9.3a9.3,9.3,0,0,1,0-18.6H126.6a9.3,9.3,0,0,0,0-18.6h-9.2a9.3,9.3,0,0,1,.129-18.6h100.35a9.3,9.3,0,1,1,0,18.6H169.15a9.3,9.3,0,0,0,0,18.6h93.576a9.3,9.3,0,0,1,0,18.6H145.8a9.3,9.3,0,0,0,0,18.6h26.394l169.506,0a9.3,9.3,0,0,1,0,18.6ZM117.525,35.6h-2.341l2.212,0h.129Zm-32.25,0H46.35a9.3,9.3,0,0,1,0-18.6H85.275a9.3,9.3,0,0,1,0,18.6Z" transform="translate(915 276)" fill="url(#a)"/><path d="M283.2,110H9.3a9.3,9.3,0,0,1,0-18.6H178.883a9.162,9.162,0,0,1-1.193-.083,9.8,9.8,0,0,0,1.26.082H205.2a9.3,9.3,0,1,0,0-18.6H88.275a9.3,9.3,0,0,1,0-18.6H179.85a9.3,9.3,0,1,0,0-18.6H133.125a9.3,9.3,0,1,1,0-18.6h100.35a9.3,9.3,0,0,1,0,18.6H214.05a9.3,9.3,0,0,0,0,18.6H341.7a9.3,9.3,0,0,1,0,18.6H240.375a9.3,9.3,0,1,0,0,18.6h25.419l17.407,0a9.3,9.3,0,0,1,0,18.6ZM160.363,35.659v0c.3-.033.6-.052.908-.056h.122A9.984,9.984,0,0,0,160.363,35.659ZM304.65,35.6H265.725a9.3,9.3,0,0,1,0-18.6H304.65a9.3,9.3,0,0,1,0,18.6Z" transform="translate(337 276)" fill="url(#a)"/><g transform="translate(686.693 281.922)"><text transform="translate(125.307 97.078)" fill="#352817" font-size="90" font-family="SourceHanSerifSC-Heavy, Source Han Serif SC" font-weight="800"><tspan x="0" y="0">昇</tspan></text><text transform="translate(14.307 94.078)" fill="#352817" font-size="90" font-family="SourceHanSerifSC-Heavy, Source Han Serif SC" font-weight="800"><tspan x="0" y="0">日</tspan></text></g><g transform="translate(669 29)" opacity="0.999"><ellipse cx="128" cy="128.5" rx="128" ry="128.5" transform="translate(2 7)" fill="url(#c)"/><g transform="translate(-4 124.858)"><circle cx="12" cy="12" r="12" transform="translate(171 8.142)" fill="url(#d)"/><g transform="translate(170.712 35.924)"><g transform="translate(0 0)"><g transform="matrix(1, 0, 0, 1, -498.71, -153.78)" filter="url(#e)"><ellipse cx="50" cy="16.5" rx="50" ry="16.5" transform="translate(499 174)" fill="#fff"/></g><g transform="matrix(1, 0, 0, 1, -498.71, -153.78)" filter="url(#g)"><ellipse cx="17.5" cy="17" rx="17.5" ry="17" transform="translate(523 154)" fill="#fff"/></g><g transform="matrix(1, 0, 0, 1, -498.71, -153.78)" filter="url(#i)"><ellipse cx="24.5" cy="18.5" rx="24.5" ry="18.5" transform="translate(544 159)" fill="#fff"/></g><g transform="matrix(1, 0, 0, 1, -498.71, -153.78)" filter="url(#k)"><ellipse cx="50" cy="16.5" rx="50" ry="16.5" transform="translate(499 174)" fill="#fff"/></g><g transform="matrix(1, 0, 0, 1, -498.71, -153.78)" filter="url(#m)"><ellipse cx="17.5" cy="17" rx="17.5" ry="17" transform="translate(523 154)" fill="#fff"/></g><g transform="matrix(1, 0, 0, 1, -498.71, -153.78)" filter="url(#o)"><ellipse cx="24.5" cy="18.5" rx="24.5" ry="18.5" transform="translate(544 159)" fill="#fff"/></g></g><ellipse cx="50" cy="16.5" rx="50" ry="16.5" transform="translate(0.288 20.218)" fill="#fff"/><ellipse cx="17.5" cy="17" rx="17.5" ry="17" transform="translate(24.288 0.218)" fill="#fff"/><ellipse cx="24.5" cy="18.5" rx="24.5" ry="18.5" transform="translate(45.288 5.218)" fill="#fff"/></g><g transform="translate(184.145 17.083)"><g transform="translate(0 0)"><g transform="matrix(1, 0, 0, 1, -512.15, -134.94)" filter="url(#q)"><ellipse cx="13.047" cy="4.803" rx="13.047" ry="4.803" transform="translate(512.15 139.73)" fill="#fff"/></g><g transform="matrix(1, 0, 0, 1, -512.15, -134.94)" filter="url(#s)"><ellipse cx="5.069" cy="4.38" rx="5.069" ry="4.38" transform="translate(518 134.94)" fill="#fff"/></g><g transform="matrix(1, 0, 0, 1, -512.15, -134.94)" filter="url(#u)"><ellipse cx="6.243" cy="4.928" rx="6.243" ry="4.928" transform="translate(524.13 136.01)" fill="#fff"/></g><g transform="matrix(1, 0, 0, 1, -512.15, -134.94)" filter="url(#w)"><ellipse cx="13.047" cy="4.803" rx="13.047" ry="4.803" transform="translate(512.15 139.73)" fill="#fff"/></g><g transform="matrix(1, 0, 0, 1, -512.15, -134.94)" filter="url(#y)"><ellipse cx="5.069" cy="4.38" rx="5.069" ry="4.38" transform="translate(518 134.94)" fill="#fff"/></g><g transform="matrix(1, 0, 0, 1, -512.15, -134.94)" filter="url(#aa)"><ellipse cx="6.243" cy="4.928" rx="6.243" ry="4.928" transform="translate(524.13 136.01)" fill="#fff"/></g></g><ellipse cx="13.047" cy="4.803" rx="13.047" ry="4.803" transform="translate(0 4.788)" fill="#fff"/><ellipse cx="5.069" cy="4.38" rx="5.069" ry="4.38" transform="translate(5.85 0)" fill="#fff"/><ellipse cx="6.243" cy="4.928" rx="6.243" ry="4.928" transform="translate(11.983 1.064)" fill="#fff"/></g><g transform="translate(151.104 25.093)"><g transform="translate(0 0)"><g transform="matrix(1, 0, 0, 1, -479.1, -142.95)" filter="url(#ac)"><ellipse cx="13.047" cy="4.803" rx="13.047" ry="4.803" transform="translate(479.1 147.74)" fill="#fff"/></g><g transform="matrix(1, 0, 0, 1, -479.1, -142.95)" filter="url(#ae)"><ellipse cx="5.069" cy="4.38" rx="5.069" ry="4.38" transform="translate(484.95 142.95)" fill="#fff"/></g><g transform="matrix(1, 0, 0, 1, -479.1, -142.95)" filter="url(#ag)"><ellipse cx="6.243" cy="4.928" rx="6.243" ry="4.928" transform="translate(491.09 144.02)" fill="#fff"/></g></g><ellipse cx="13.047" cy="4.803" rx="13.047" ry="4.803" transform="translate(0 4.788)" fill="#fff"/><ellipse cx="5.069" cy="4.38" rx="5.069" ry="4.38" transform="translate(5.85 0)" fill="#fff"/><ellipse cx="6.243" cy="4.928" rx="6.243" ry="4.928" transform="translate(11.983 1.064)" fill="#fff"/></g><g transform="translate(79.453 0)"><g transform="translate(0)"><g transform="matrix(1, 0, 0, 1, -407.45, -117.86)" filter="url(#ai)"><ellipse cx="18.288" cy="6.727" rx="18.288" ry="6.727" transform="translate(407.45 124.55)" fill="#fff"/></g><g transform="matrix(1, 0, 0, 1, -407.45, -117.86)" filter="url(#ak)"><ellipse cx="7.103" cy="6.149" rx="7.103" ry="6.149" transform="translate(415.65 117.86)" fill="#fff"/></g><g transform="matrix(1, 0, 0, 1, -407.45, -117.86)" filter="url(#am)"><ellipse cx="8.761" cy="6.9" rx="8.761" ry="6.9" transform="translate(424.25 119.36)" fill="#fff"/></g><g transform="matrix(1, 0, 0, 1, -407.45, -117.86)" filter="url(#ao)"><ellipse cx="18.288" cy="6.727" rx="18.288" ry="6.727" transform="translate(407.45 124.55)" fill="#fff"/></g><g transform="matrix(1, 0, 0, 1, -407.45, -117.86)" filter="url(#aq)"><ellipse cx="7.103" cy="6.149" rx="7.103" ry="6.149" transform="translate(415.65 117.86)" fill="#fff"/></g><g transform="matrix(1, 0, 0, 1, -407.45, -117.86)" filter="url(#as)"><ellipse cx="8.761" cy="6.9" rx="8.761" ry="6.9" transform="translate(424.25 119.36)" fill="#fff"/></g></g><ellipse cx="18.288" cy="6.727" rx="18.288" ry="6.727" transform="translate(0 6.695)" fill="#fff"/><ellipse cx="7.103" cy="6.149" rx="7.103" ry="6.149" transform="translate(8.198)" fill="#fff"/><ellipse cx="8.761" cy="6.9" rx="8.761" ry="6.9" transform="translate(16.802 1.502)" fill="#fff"/></g><g transform="translate(0 64.141)"><g transform="matrix(1, 0, 0, 1, -328, -182)" filter="url(#au)"><ellipse cx="23.029" cy="8.699" rx="23.029" ry="8.699" transform="translate(332.61 193.58)" fill="#fff"/></g><g transform="matrix(1, 0, 0, 1, -328, -182)" filter="url(#aw)"><ellipse cx="8.949" cy="7.948" rx="8.949" ry="7.948" transform="translate(342.93 184.94)" fill="#fff"/></g><g transform="matrix(1, 0, 0, 1, -328, -182)" filter="url(#ay)"><ellipse cx="11.029" cy="8.917" rx="11.029" ry="8.917" transform="translate(353.76 186.88)" fill="#fff"/></g><g transform="matrix(1, 0, 0, 1, -328, -182)" filter="url(#ba)"><ellipse cx="23.029" cy="8.699" rx="23.029" ry="8.699" transform="translate(332.61 193.58)" fill="#fff"/></g><g transform="matrix(1, 0, 0, 1, -328, -182)" filter="url(#bc)"><ellipse cx="8.949" cy="7.948" rx="8.949" ry="7.948" transform="translate(342.93 184.94)" fill="#fff"/></g><g transform="matrix(1, 0, 0, 1, -328, -182)" filter="url(#be)"><ellipse cx="11.029" cy="8.917" rx="11.029" ry="8.917" transform="translate(353.76 186.88)" fill="#fff"/></g><ellipse cx="23.029" cy="8.699" rx="23.029" ry="8.699" transform="translate(4.61 11.579)" fill="#fff"/><ellipse cx="8.949" cy="7.948" rx="8.949" ry="7.948" transform="translate(14.935 2.943)" fill="#fff"/><ellipse cx="11.029" cy="8.917" rx="11.029" ry="8.917" transform="translate(25.761 4.883)" fill="#fff"/></g></g><g transform="translate(42.275 127.345)"><g transform="translate(0 0)"><path d="M0,70.47C0,31.551,7.815,0,17.457,0S34.912,31.551,34.912,70.47c0,3.92-.079,7.768-.232,11.513A128.737,128.737,0,0,1,2.185,104.637,254.247,254.247,0,0,1,0,70.47Z" transform="translate(141.796 18.998)" fill="url(#bg)"/><path d="M0,65.723C0,29.424,5.635,0,12.587,0S25.174,29.424,25.174,65.723c0,7.676-.252,15.048-.715,21.9a127.581,127.581,0,0,1-22.94,9.429A307.06,307.06,0,0,1,0,65.723Z" transform="translate(123.317 34.085)" fill="url(#bh)"/><path d="M6.362,125.947A129.542,129.542,0,0,1,0,85.1C0,38.1,23.247,0,51.923,0s51.923,38.1,51.923,85.1a127,127,0,0,1-8.118,45.709,128.309,128.309,0,0,1-38.149,5.763A127.94,127.94,0,0,1,6.362,125.947Z" transform="translate(30.176 0)" fill="url(#bi)"/><path d="M.16,59.494Q0,56.48,0,53.373C0,23.9,11.027,0,24.628,0S49.256,23.9,49.256,53.373c0,12.454-1.968,23.911-5.267,32.991A128.4,128.4,0,0,1,.16,59.494Z" transform="translate(0 42.553)" fill="url(#bj)"/></g><path d="M.16,102.048Q0,99.034,0,95.922C0,66.446,11.027,42.551,24.628,42.551c3.858,0,7.509,1.922,10.76,5.349C43.81,19.544,61.564,0,82.1,0c20.265,0,37.818,19.026,46.373,46.771,2.082-7.975,4.654-12.686,7.434-12.686,3.32,0,6.34,6.711,8.589,17.678C147.593,32.074,153.041,19,159.245,19c9.641,0,17.457,31.551,17.457,70.471,0,3.919-.079,7.766-.232,11.511A128.387,128.387,0,0,1,.16,102.048Z" transform="translate(0)" opacity="0.555" fill="url(#bk)"/></g></g></g></svg>