<svg xmlns="http://www.w3.org/2000/svg" width="182" height="182" viewBox="0 0 182 182"><g transform="translate(-166.179 -158.179)"><g transform="translate(166.179 158.179)" fill="#281e12" stroke="#fff" stroke-width="8"><circle cx="91" cy="91" r="91" stroke="none"/><circle cx="91" cy="91" r="87" fill="none"/></g><path d="M62.281,92.242A91.648,91.648,0,0,1,43.511,90.3a90.521,90.521,0,0,1-17.44-5.551H98.489A90.55,90.55,0,0,1,81.049,90.3,91.625,91.625,0,0,1,62.281,92.242Zm44.292-11.488H17.987a91.421,91.421,0,0,1-8.728-5.546H115.3a91.449,91.449,0,0,1-8.729,5.546ZM119,71.208H5.4c-.095-1.537-.142-3.1-.142-4.653,0-.266,0-.536,0-.8h113.78c.007.6.01,1.174.01,1.705,0,1.253-.016,2.514-.048,3.748Zm-.064-9.454H5.41c.511-8.039,2.312-15.426,5.072-20.8a20.08,20.08,0,0,1,4.6-6.172,8.4,8.4,0,0,1,5.473-2.243c2.941,0,5.8,1.859,8.257,5.377,2.449-8.212,6.2-15.147,10.852-20.056,4.779-5.044,10.307-7.71,15.988-7.71s11.2,2.661,15.974,7.7c4.648,4.9,8.4,11.824,10.851,20.022,1.747-5.969,3.78-9.124,5.876-9.124,1.467,0,2.89,1.516,4.227,4.507a57.429,57.429,0,0,1,3.437,12.274,54.672,54.672,0,0,1,4.439-14.7,14.675,14.675,0,0,1,2.927-4.12,4.829,4.829,0,0,1,3.249-1.458c1.538,0,3.039.944,4.462,2.8a27,27,0,0,1,3.744,7.717c2.247,6.724,3.7,15.95,4.1,25.98Z" transform="translate(195.023 247.926)" fill="#fff"/><circle cx="11" cy="11" r="11" transform="translate(274.179 227.179)" fill="#fff"/><g transform="translate(302.991 252.305)"><ellipse cx="15" cy="4.5" rx="15" ry="4.5" transform="translate(0.187 6.874)" fill="#fff"/><ellipse cx="7" cy="7.5" rx="7" ry="7.5" transform="translate(6.187 -0.126)" fill="#fff"/><ellipse cx="7.5" cy="7" rx="7.5" ry="7" transform="translate(13.187 0.874)" fill="#fff"/></g><g transform="translate(219.634 241.492)"><ellipse cx="12.5" cy="4.5" rx="12.5" ry="4.5" transform="translate(-0.455 5.687)" fill="#fff"/><circle cx="6" cy="6" r="6" transform="translate(2.545 1.687)" fill="#fff"/><ellipse cx="7.5" cy="7" rx="7.5" ry="7" transform="translate(7.545 -0.313)" fill="#fff"/></g><g transform="translate(183.835 266.35)"><ellipse cx="14.5" cy="4.5" rx="14.5" ry="4.5" transform="translate(0.344 6.829)" fill="#fff"/><ellipse cx="6" cy="5.5" rx="6" ry="5.5" transform="translate(5.344 1.829)" fill="#fff"/><circle cx="7.5" cy="7.5" r="7.5" transform="translate(12.344 -0.171)" fill="#fff"/></g></g></svg>