<svg xmlns="http://www.w3.org/2000/svg" xmlns:xlink="http://www.w3.org/1999/xlink" width="256" height="256" viewBox="0 0 256 256"><defs><linearGradient id="a" x1="0.5" x2="0.5" y2="1" gradientUnits="objectBoundingBox"><stop offset="0" stop-color="#00dead"/><stop offset="0.126" stop-color="#00dead"/><stop offset="0.833" stop-color="#ffcc95"/><stop offset="0.982" stop-color="#ffcc95"/></linearGradient><filter id="b" x="20" y="23" width="212" height="212" filterUnits="userSpaceOnUse"><feOffset dx="1" dy="1" input="SourceAlpha"/><feGaussianBlur stdDeviation="5" result="c"/><feFlood flood-color="#00dead" flood-opacity="0.506"/><feComposite operator="in" in2="c"/><feComposite in="SourceGraphic"/></filter><filter id="e" x="18" y="21" width="212" height="212" filterUnits="userSpaceOnUse"><feOffset dx="-1" dy="-1" input="SourceAlpha"/><feGaussianBlur stdDeviation="5" result="f"/><feFlood flood-color="#00dead" flood-opacity="0.506"/><feComposite operator="in" in2="f"/><feComposite in="SourceGraphic"/></filter><linearGradient id="g" x1="0.5" x2="0.5" y2="1" gradientUnits="objectBoundingBox"><stop offset="0" stop-color="#ff5151"/><stop offset="0.121" stop-color="#ff5151"/><stop offset="0.972" stop-color="#f9ec1b"/><stop offset="1" stop-color="#f9f119"/></linearGradient><filter id="h" x="149" y="158" width="77" height="30" filterUnits="userSpaceOnUse"><feOffset dx="1" dy="1" input="SourceAlpha"/><feGaussianBlur stdDeviation="1" result="i"/><feFlood flood-color="#9b9b9b" flood-opacity="0.098"/><feComposite operator="in" in2="i"/><feComposite in="SourceGraphic"/></filter><filter id="j" x="166" y="144" width="31" height="30" filterUnits="userSpaceOnUse"><feOffset dx="1" dy="1" input="SourceAlpha"/><feGaussianBlur stdDeviation="1" result="k"/><feFlood flood-color="#9b9b9b" flood-opacity="0.098"/><feComposite operator="in" in2="k"/><feComposite in="SourceGraphic"/></filter><filter id="l" x="181" y="148" width="41" height="32" filterUnits="userSpaceOnUse"><feOffset dx="1" dy="1" input="SourceAlpha"/><feGaussianBlur stdDeviation="1" result="m"/><feFlood flood-color="#9b9b9b" flood-opacity="0.098"/><feComposite operator="in" in2="m"/><feComposite in="SourceGraphic"/></filter><filter id="n" x="147" y="156" width="77" height="30" filterUnits="userSpaceOnUse"><feOffset dx="-1" dy="-1" input="SourceAlpha"/><feGaussianBlur stdDeviation="1" result="o"/><feFlood flood-color="#9b9b9b" flood-opacity="0.098"/><feComposite operator="in" in2="o"/><feComposite in="SourceGraphic"/></filter><filter id="p" x="164" y="142" width="31" height="30" filterUnits="userSpaceOnUse"><feOffset dx="-1" dy="-1" input="SourceAlpha"/><feGaussianBlur stdDeviation="1" result="q"/><feFlood flood-color="#9b9b9b" flood-opacity="0.098"/><feComposite operator="in" in2="q"/><feComposite in="SourceGraphic"/></filter><filter id="r" x="179" y="146" width="41" height="32" filterUnits="userSpaceOnUse"><feOffset dx="-1" dy="-1" input="SourceAlpha"/><feGaussianBlur stdDeviation="1" result="s"/><feFlood flood-color="#9b9b9b" flood-opacity="0.098"/><feComposite operator="in" in2="s"/><feComposite in="SourceGraphic"/></filter><filter id="t" x="158.521" y="134.04" width="24.496" height="12.809" filterUnits="userSpaceOnUse"><feOffset dx="1" dy="1" input="SourceAlpha"/><feGaussianBlur stdDeviation="1" result="u"/><feFlood flood-color="#9b9b9b" flood-opacity="0.098"/><feComposite operator="in" in2="u"/><feComposite in="SourceGraphic"/></filter><filter id="v" x="162.668" y="130.646" width="13.186" height="12.21" filterUnits="userSpaceOnUse"><feOffset dx="1" dy="1" input="SourceAlpha"/><feGaussianBlur stdDeviation="1" result="w"/><feFlood flood-color="#9b9b9b" flood-opacity="0.098"/><feComposite operator="in" in2="w"/><feComposite in="SourceGraphic"/></filter><filter id="x" x="167.015" y="131.4" width="14.85" height="12.986" filterUnits="userSpaceOnUse"><feOffset dx="1" dy="1" input="SourceAlpha"/><feGaussianBlur stdDeviation="1" result="y"/><feFlood flood-color="#9b9b9b" flood-opacity="0.098"/><feComposite operator="in" in2="y"/><feComposite in="SourceGraphic"/></filter><filter id="z" x="156.521" y="132.04" width="24.496" height="12.809" filterUnits="userSpaceOnUse"><feOffset dx="-1" dy="-1" input="SourceAlpha"/><feGaussianBlur stdDeviation="1" result="aa"/><feFlood flood-color="#9b9b9b" flood-opacity="0.098"/><feComposite operator="in" in2="aa"/><feComposite in="SourceGraphic"/></filter><filter id="ab" x="160.668" y="128.646" width="13.186" height="12.21" filterUnits="userSpaceOnUse"><feOffset dx="-1" dy="-1" input="SourceAlpha"/><feGaussianBlur stdDeviation="1" result="ac"/><feFlood flood-color="#9b9b9b" flood-opacity="0.098"/><feComposite operator="in" in2="ac"/><feComposite in="SourceGraphic"/></filter><filter id="ad" x="165.015" y="129.4" width="14.85" height="12.986" filterUnits="userSpaceOnUse"><feOffset dx="-1" dy="-1" input="SourceAlpha"/><feGaussianBlur stdDeviation="1" result="ae"/><feFlood flood-color="#9b9b9b" flood-opacity="0.098"/><feComposite operator="in" in2="ae"/><feComposite in="SourceGraphic"/></filter><filter id="af" x="135.102" y="137.717" width="24.496" height="12.809" filterUnits="userSpaceOnUse"><feOffset dx="1" dy="-1" input="SourceAlpha"/><feGaussianBlur stdDeviation="1" result="ag"/><feFlood flood-color="#9b9b9b" flood-opacity="0.098"/><feComposite operator="in" in2="ag"/><feComposite in="SourceGraphic"/></filter><filter id="ah" x="139.249" y="134.323" width="13.186" height="12.21" filterUnits="userSpaceOnUse"><feOffset dx="1" dy="-1" input="SourceAlpha"/><feGaussianBlur stdDeviation="1" result="ai"/><feFlood flood-color="#9b9b9b" flood-opacity="0.098"/><feComposite operator="in" in2="ai"/><feComposite in="SourceGraphic"/></filter><filter id="aj" x="143.596" y="135.078" width="14.85" height="12.986" filterUnits="userSpaceOnUse"><feOffset dx="1" dy="-1" input="SourceAlpha"/><feGaussianBlur stdDeviation="1" result="ak"/><feFlood flood-color="#9b9b9b" flood-opacity="0.098"/><feComposite operator="in" in2="ak"/><feComposite in="SourceGraphic"/></filter><filter id="al" x="84.316" y="123.283" width="31.925" height="15.537" filterUnits="userSpaceOnUse"><feOffset dx="1" dy="1" input="SourceAlpha"/><feGaussianBlur stdDeviation="1" result="am"/><feFlood flood-color="#9b9b9b" flood-opacity="0.098"/><feComposite operator="in" in2="am"/><feComposite in="SourceGraphic"/></filter><filter id="an" x="90.127" y="118.537" width="16.069" height="14.716" filterUnits="userSpaceOnUse"><feOffset dx="1" dy="1" input="SourceAlpha"/><feGaussianBlur stdDeviation="1" result="ao"/><feFlood flood-color="#9b9b9b" flood-opacity="0.098"/><feComposite operator="in" in2="ao"/><feComposite in="SourceGraphic"/></filter><filter id="ap" x="96.225" y="119.602" width="18.419" height="15.781" filterUnits="userSpaceOnUse"><feOffset dx="1" dy="1" input="SourceAlpha"/><feGaussianBlur stdDeviation="1" result="aq"/><feFlood flood-color="#9b9b9b" flood-opacity="0.098"/><feComposite operator="in" in2="aq"/><feComposite in="SourceGraphic"/></filter><filter id="ar" x="82.316" y="121.283" width="31.925" height="15.537" filterUnits="userSpaceOnUse"><feOffset dx="-1" dy="-1" input="SourceAlpha"/><feGaussianBlur stdDeviation="1" result="as"/><feFlood flood-color="#9b9b9b" flood-opacity="0.098"/><feComposite operator="in" in2="as"/><feComposite in="SourceGraphic"/></filter><filter id="at" x="88.127" y="116.537" width="16.069" height="14.716" filterUnits="userSpaceOnUse"><feOffset dx="-1" dy="-1" input="SourceAlpha"/><feGaussianBlur stdDeviation="1" result="au"/><feFlood flood-color="#9b9b9b" flood-opacity="0.098"/><feComposite operator="in" in2="au"/><feComposite in="SourceGraphic"/></filter><filter id="av" x="94.225" y="117.602" width="18.419" height="15.781" filterUnits="userSpaceOnUse"><feOffset dx="-1" dy="-1" input="SourceAlpha"/><feGaussianBlur stdDeviation="1" result="aw"/><feFlood flood-color="#9b9b9b" flood-opacity="0.098"/><feComposite operator="in" in2="aw"/><feComposite in="SourceGraphic"/></filter><filter id="ax" x="31.268" y="172.207" width="38.645" height="18.331" filterUnits="userSpaceOnUse"><feOffset dx="1" dy="1" input="SourceAlpha"/><feGaussianBlur stdDeviation="1" result="ay"/><feFlood flood-color="#9b9b9b" flood-opacity="0.098"/><feComposite operator="in" in2="ay"/><feComposite in="SourceGraphic"/></filter><filter id="az" x="38.586" y="166.086" width="18.686" height="17.267" filterUnits="userSpaceOnUse"><feOffset dx="1" dy="1" input="SourceAlpha"/><feGaussianBlur stdDeviation="1" result="ba"/><feFlood flood-color="#9b9b9b" flood-opacity="0.098"/><feComposite operator="in" in2="ba"/><feComposite in="SourceGraphic"/></filter><filter id="bb" x="46.26" y="167.461" width="21.634" height="18.641" filterUnits="userSpaceOnUse"><feOffset dx="1" dy="1" input="SourceAlpha"/><feGaussianBlur stdDeviation="1" result="bc"/><feFlood flood-color="#9b9b9b" flood-opacity="0.098"/><feComposite operator="in" in2="bc"/><feComposite in="SourceGraphic"/></filter><filter id="bd" x="29.268" y="170.207" width="38.645" height="18.331" filterUnits="userSpaceOnUse"><feOffset dx="-1" dy="-1" input="SourceAlpha"/><feGaussianBlur stdDeviation="1" result="be"/><feFlood flood-color="#9b9b9b" flood-opacity="0.098"/><feComposite operator="in" in2="be"/><feComposite in="SourceGraphic"/></filter><filter id="bf" x="36.586" y="164.086" width="18.686" height="17.267" filterUnits="userSpaceOnUse"><feOffset dx="-1" dy="-1" input="SourceAlpha"/><feGaussianBlur stdDeviation="1" result="bg"/><feFlood flood-color="#9b9b9b" flood-opacity="0.098"/><feComposite operator="in" in2="bg"/><feComposite in="SourceGraphic"/></filter><filter id="bh" x="44.26" y="165.461" width="21.634" height="18.641" filterUnits="userSpaceOnUse"><feOffset dx="-1" dy="-1" input="SourceAlpha"/><feGaussianBlur stdDeviation="1" result="bi"/><feFlood flood-color="#9b9b9b" flood-opacity="0.098"/><feComposite operator="in" in2="bi"/><feComposite in="SourceGraphic"/></filter><linearGradient id="bj" x1="1" y1="0.792" x2="-2.223" y2="-0.074" gradientUnits="objectBoundingBox"><stop offset="0" stop-color="#281e12"/><stop offset="1" stop-color="#fff"/></linearGradient><linearGradient id="bk" y1="0.897" x2="-3.414" y2="-1.01" xlink:href="#bj"/><linearGradient id="bl" x1="0.524" y1="1" x2="1.344" y2="-0.797" xlink:href="#bj"/><linearGradient id="bm" x1="0" y1="0.699" x2="1.654" y2="-0.323" xlink:href="#bj"/><linearGradient id="bn" x1="0.5" x2="0.5" y2="1" gradientUnits="objectBoundingBox"><stop offset="0" stop-color="#281e12"/><stop offset="1" stop-color="#2f1900"/></linearGradient><clipPath id="bp"><rect width="256" height="256"/></clipPath></defs><g id="bo" clip-path="url(#bp)"><rect width="256" height="256" fill="#bfffe3"/><g transform="translate(34 30)" opacity="0.999"><g transform="matrix(1, 0, 0, 1, -34, -30)" filter="url(#b)"><circle cx="91" cy="91" r="91" transform="translate(34 37)" fill="url(#a)"/></g><g transform="matrix(1, 0, 0, 1, -34, -30)" filter="url(#e)"><circle cx="91" cy="91" r="91" transform="translate(34 37)" fill="url(#a)"/></g><g transform="translate(-4 88.72)"><circle cx="8.5" cy="8.5" r="8.5" transform="translate(121 7.28)" fill="url(#g)"/><g transform="translate(108.96 18.16)"><g transform="matrix(1, 0, 0, 1, -138.96, -136.88)" filter="url(#h)"><ellipse cx="35.5" cy="12" rx="35.5" ry="12" transform="translate(151 160)" fill="#fff"/></g><g transform="matrix(1, 0, 0, 1, -138.96, -136.88)" filter="url(#j)"><ellipse cx="12.5" cy="12" rx="12.5" ry="12" transform="translate(168 146)" fill="#fff"/></g><g transform="matrix(1, 0, 0, 1, -138.96, -136.88)" filter="url(#l)"><ellipse cx="17.5" cy="13" rx="17.5" ry="13" transform="translate(183 150)" fill="#fff"/></g><g transform="matrix(1, 0, 0, 1, -138.96, -136.88)" filter="url(#n)"><ellipse cx="35.5" cy="12" rx="35.5" ry="12" transform="translate(151 160)" fill="#fff"/></g><g transform="matrix(1, 0, 0, 1, -138.96, -136.88)" filter="url(#p)"><ellipse cx="12.5" cy="12" rx="12.5" ry="12" transform="translate(168 146)" fill="#fff"/></g><g transform="matrix(1, 0, 0, 1, -138.96, -136.88)" filter="url(#r)"><ellipse cx="17.5" cy="13" rx="17.5" ry="13" transform="translate(183 150)" fill="#fff"/></g><ellipse cx="35.5" cy="12" rx="35.5" ry="12" transform="translate(12.04 23.12)" fill="#fff"/><ellipse cx="12.5" cy="12" rx="12.5" ry="12" transform="translate(29.04 9.12)" fill="#fff"/><ellipse cx="17.5" cy="13" rx="17.5" ry="13" transform="translate(44.04 13.12)" fill="#fff"/></g><g transform="translate(130.146 12.107)"><g transform="matrix(1, 0, 0, 1, -160.15, -130.83)" filter="url(#t)"><ellipse cx="9.248" cy="3.404" rx="9.248" ry="3.404" transform="translate(160.52 136.04)" fill="#fff"/></g><g transform="matrix(1, 0, 0, 1, -160.15, -130.83)" filter="url(#v)"><ellipse cx="3.593" cy="3.105" rx="3.593" ry="3.105" transform="translate(164.67 132.65)" fill="#fff"/></g><g transform="matrix(1, 0, 0, 1, -160.15, -130.83)" filter="url(#x)"><ellipse cx="4.425" cy="3.493" rx="4.425" ry="3.493" transform="translate(169.01 133.4)" fill="#fff"/></g><g transform="matrix(1, 0, 0, 1, -160.15, -130.83)" filter="url(#z)"><ellipse cx="9.248" cy="3.404" rx="9.248" ry="3.404" transform="translate(160.52 136.04)" fill="#fff"/></g><g transform="matrix(1, 0, 0, 1, -160.15, -130.83)" filter="url(#ab)"><ellipse cx="3.593" cy="3.105" rx="3.593" ry="3.105" transform="translate(164.67 132.65)" fill="#fff"/></g><g transform="matrix(1, 0, 0, 1, -160.15, -130.83)" filter="url(#ad)"><ellipse cx="4.425" cy="3.493" rx="4.425" ry="3.493" transform="translate(169.01 133.4)" fill="#fff"/></g><ellipse cx="9.248" cy="3.404" rx="9.248" ry="3.404" transform="translate(0.375 5.213)" fill="#fff"/><ellipse cx="3.593" cy="3.105" rx="3.593" ry="3.105" transform="translate(4.522 1.819)" fill="#fff"/><ellipse cx="4.425" cy="3.493" rx="4.425" ry="3.493" transform="translate(8.869 2.574)" fill="#fff"/></g><g transform="translate(104.42 18.16)"><g transform="matrix(1, 0, 0, 1, -134.42, -136.88)" filter="url(#af)"><ellipse cx="9.248" cy="3.404" rx="9.248" ry="3.404" transform="translate(137.1 141.72)" fill="#fff"/></g><g transform="matrix(1, 0, 0, 1, -134.42, -136.88)" filter="url(#ah)"><ellipse cx="3.593" cy="3.105" rx="3.593" ry="3.105" transform="translate(141.25 138.32)" fill="#fff"/></g><g transform="matrix(1, 0, 0, 1, -134.42, -136.88)" filter="url(#aj)"><ellipse cx="4.425" cy="3.493" rx="4.425" ry="3.493" transform="translate(145.6 139.08)" fill="#fff"/></g><ellipse cx="9.248" cy="3.404" rx="9.248" ry="3.404" transform="translate(2.682 4.837)" fill="#fff"/><ellipse cx="3.593" cy="3.105" rx="3.593" ry="3.105" transform="translate(6.829 1.444)" fill="#fff"/><ellipse cx="4.425" cy="3.493" rx="4.425" ry="3.493" transform="translate(11.176 2.198)" fill="#fff"/></g><g transform="translate(54.48 0)"><g transform="matrix(1, 0, 0, 1, -84.48, -118.72)" filter="url(#al)"><ellipse cx="12.962" cy="4.768" rx="12.962" ry="4.768" transform="translate(86.32 125.28)" fill="#fff"/></g><g transform="matrix(1, 0, 0, 1, -84.48, -118.72)" filter="url(#an)"><ellipse cx="5.034" cy="4.358" rx="5.034" ry="4.358" transform="translate(92.13 120.54)" fill="#fff"/></g><g transform="matrix(1, 0, 0, 1, -84.48, -118.72)" filter="url(#ap)"><ellipse cx="6.21" cy="4.89" rx="6.21" ry="4.89" transform="translate(98.23 121.6)" fill="#fff"/></g><g transform="matrix(1, 0, 0, 1, -84.48, -118.72)" filter="url(#ar)"><ellipse cx="12.962" cy="4.768" rx="12.962" ry="4.768" transform="translate(86.32 125.28)" fill="#fff"/></g><g transform="matrix(1, 0, 0, 1, -84.48, -118.72)" filter="url(#at)"><ellipse cx="5.034" cy="4.358" rx="5.034" ry="4.358" transform="translate(92.13 120.54)" fill="#fff"/></g><g transform="matrix(1, 0, 0, 1, -84.48, -118.72)" filter="url(#av)"><ellipse cx="6.21" cy="4.89" rx="6.21" ry="4.89" transform="translate(98.23 121.6)" fill="#fff"/></g><ellipse cx="12.962" cy="4.768" rx="12.962" ry="4.768" transform="translate(1.836 6.563)" fill="#fff"/><ellipse cx="5.034" cy="4.358" rx="5.034" ry="4.358" transform="translate(7.647 1.818)" fill="#fff"/><ellipse cx="6.21" cy="4.89" rx="6.21" ry="4.89" transform="translate(13.745 2.882)" fill="#fff"/></g><g transform="translate(0 46.913)"><g transform="matrix(1, 0, 0, 1, -30, -165.63)" filter="url(#ax)"><ellipse cx="16.323" cy="6.166" rx="16.323" ry="6.166" transform="translate(33.27 174.21)" fill="#fff"/></g><g transform="matrix(1, 0, 0, 1, -30, -165.63)" filter="url(#az)"><ellipse cx="6.343" cy="5.633" rx="6.343" ry="5.633" transform="translate(40.59 168.09)" fill="#fff"/></g><g transform="matrix(1, 0, 0, 1, -30, -165.63)" filter="url(#bb)"><ellipse cx="7.817" cy="6.32" rx="7.817" ry="6.32" transform="translate(48.26 169.46)" fill="#fff"/></g><g transform="matrix(1, 0, 0, 1, -30, -165.63)" filter="url(#bd)"><ellipse cx="16.323" cy="6.166" rx="16.323" ry="6.166" transform="translate(33.27 174.21)" fill="#fff"/></g><g transform="matrix(1, 0, 0, 1, -30, -165.63)" filter="url(#bf)"><ellipse cx="6.343" cy="5.633" rx="6.343" ry="5.633" transform="translate(40.59 168.09)" fill="#fff"/></g><g transform="matrix(1, 0, 0, 1, -30, -165.63)" filter="url(#bh)"><ellipse cx="7.817" cy="6.32" rx="7.817" ry="6.32" transform="translate(48.26 169.46)" fill="#fff"/></g><ellipse cx="16.323" cy="6.166" rx="16.323" ry="6.166" transform="translate(3.268 8.574)" fill="#fff"/><ellipse cx="6.343" cy="5.633" rx="6.343" ry="5.633" transform="translate(10.586 2.453)" fill="#fff"/><ellipse cx="7.817" cy="6.32" rx="7.817" ry="6.32" transform="translate(18.26 3.828)" fill="#fff"/></g></g><g transform="translate(-1)"><g transform="translate(0 0.1)"><path d="M94.3,118.615c0-27.586,5.539-49.949,12.373-49.949s12.372,22.363,12.372,49.949c0,2.778-.056,5.506-.164,8.161a91.248,91.248,0,0,1-23.032,16.057A180.211,180.211,0,0,1,94.3,118.615Z" transform="translate(36 37)" fill="url(#bj)"/><path d="M81.207,125.943c0-25.728,3.994-46.584,8.922-46.584s8.922,20.856,8.922,46.584c0,5.441-.179,10.666-.507,15.52a90.429,90.429,0,0,1-16.26,6.683A217.644,217.644,0,0,1,81.207,125.943Z" transform="translate(36 37)" fill="url(#bk)"/><path d="M19.7,144.471a91.819,91.819,0,0,1-4.51-28.954c0-33.312,16.477-60.317,36.8-60.317s36.8,27.005,36.8,60.317a90.016,90.016,0,0,1-5.754,32.4A91.389,91.389,0,0,1,19.7,144.471Z" transform="translate(36 37)" fill="url(#bl)"/><path d="M-6.087,127.531q-.113-2.136-.114-4.339c0-20.894,7.816-37.831,17.456-37.831S28.713,102.3,28.713,123.192a69.817,69.817,0,0,1-3.733,23.384A91.007,91.007,0,0,1-6.087,127.531Z" transform="translate(36 37)" fill="url(#bm)"/></g><path d="M1.114,72.331Q1,70.195,1,67.99C1,47.1,8.816,30.16,18.456,30.16c2.734,0,5.323,1.363,7.627,3.792C32.053,13.853,44.636,0,59.193,0,73.557,0,86,13.486,92.062,33.152c1.476-5.653,3.3-8.992,5.27-8.992,2.354,0,4.494,4.757,6.088,12.53,2.194-13.955,6.056-23.219,10.454-23.219,6.834,0,12.373,22.363,12.373,49.95,0,2.778-.056,5.5-.164,8.159a91,91,0,0,1-124.968.752Z" transform="translate(28.8 92.3)" opacity="0.555" fill="url(#bn)"/></g></g></g></svg>