<svg xmlns="http://www.w3.org/2000/svg" xmlns:xlink="http://www.w3.org/1999/xlink" width="100%" height="100%" viewBox="0 0 256 256"><defs><style>.a{clip-path:url(#bp);}.b{opacity:0.999;}.c{fill:url(#a);}.d{fill:url(#b);}.e{fill:#fff;}.f{fill:url(#ag);}.g{fill:url(#bk);}.h{fill:url(#bl);}.i{fill:url(#bm);}.j{fill:url(#bn);}.k{fill:#bfffe3;}.l{filter:url(#bi);}.m{filter:url(#bg);}.n{filter:url(#be);}.o{filter:url(#bc);}.p{filter:url(#ba);}.q{filter:url(#ay);}.r{filter:url(#aw);}.s{filter:url(#at);}.t{filter:url(#aq);}.u{filter:url(#an);}.v{filter:url(#ak);}.w{filter:url(#ah);}.x{filter:url(#ae);}.y{filter:url(#ac);}.z{filter:url(#aa);}.aa{filter:url(#y);}.ab{filter:url(#w);}.ac{filter:url(#u);}.ad{filter:url(#s);}.ae{filter:url(#q);}.af{filter:url(#o);}.ag{filter:url(#m);}.ah{filter:url(#k);}.ai{filter:url(#i);}.aj{filter:url(#g);}.ak{filter:url(#e);}.al{filter:url(#c);}</style><linearGradient id="a" x1="0.5" x2="0.5" y2="1" gradientUnits="objectBoundingBox"><stop offset="0" stop-color="#00dead"/><stop offset="0.126" stop-color="#00dead"/><stop offset="0.833" stop-color="#ffcc95"/><stop offset="0.982" stop-color="#ffcc95"/></linearGradient><linearGradient id="b" x1="0.5" x2="0.5" y2="1" gradientUnits="objectBoundingBox"><stop offset="0" stop-color="#ff5151"/><stop offset="0.121" stop-color="#ff5151"/><stop offset="0.972" stop-color="#f9ec1b"/><stop offset="1" stop-color="#f9f119"/></linearGradient><filter id="c" x="148.215" y="165.194" width="79.183" height="30.151" filterUnits="userSpaceOnUse"><feOffset dx="1" dy="1" input="SourceAlpha"/><feGaussianBlur stdDeviation="1" result="d"/><feFlood flood-color="#9b9b9b" flood-opacity="0.098"/><feComposite operator="in" in2="d"/><feComposite in="SourceGraphic"/></filter><filter id="e" x="165.779" y="150.557" width="31.614" height="30.882" filterUnits="userSpaceOnUse"><feOffset dx="1" dy="1" input="SourceAlpha"/><feGaussianBlur stdDeviation="1" result="f"/><feFlood flood-color="#9b9b9b" flood-opacity="0.098"/><feComposite operator="in" in2="f"/><feComposite in="SourceGraphic"/></filter><filter id="g" x="181.148" y="154.216" width="41.86" height="33.078" filterUnits="userSpaceOnUse"><feOffset dx="1" dy="1" input="SourceAlpha"/><feGaussianBlur stdDeviation="1" result="h"/><feFlood flood-color="#9b9b9b" flood-opacity="0.098"/><feComposite operator="in" in2="h"/><feComposite in="SourceGraphic"/></filter><filter id="i" x="146.215" y="163.194" width="79.183" height="30.151" filterUnits="userSpaceOnUse"><feOffset dx="-1" dy="-1" input="SourceAlpha"/><feGaussianBlur stdDeviation="1" result="j"/><feFlood flood-color="#9b9b9b" flood-opacity="0.098"/><feComposite operator="in" in2="j"/><feComposite in="SourceGraphic"/></filter><filter id="k" x="163.779" y="148.557" width="31.614" height="30.882" filterUnits="userSpaceOnUse"><feOffset dx="-1" dy="-1" input="SourceAlpha"/><feGaussianBlur stdDeviation="1" result="l"/><feFlood flood-color="#9b9b9b" flood-opacity="0.098"/><feComposite operator="in" in2="l"/><feComposite in="SourceGraphic"/></filter><filter id="m" x="179.148" y="152.216" width="41.86" height="33.078" filterUnits="userSpaceOnUse"><feOffset dx="-1" dy="-1" input="SourceAlpha"/><feGaussianBlur stdDeviation="1" result="n"/><feFlood flood-color="#9b9b9b" flood-opacity="0.098"/><feComposite operator="in" in2="n"/><feComposite in="SourceGraphic"/></filter><filter id="o" x="157.835" y="140.113" width="25.097" height="13.03" filterUnits="userSpaceOnUse"><feOffset dx="1" dy="1" input="SourceAlpha"/><feGaussianBlur stdDeviation="1" result="p"/><feFlood flood-color="#9b9b9b" flood-opacity="0.098"/><feComposite operator="in" in2="p"/><feComposite in="SourceGraphic"/></filter><filter id="q" x="162.117" y="136.609" width="13.42" height="12.411" filterUnits="userSpaceOnUse"><feOffset dx="1" dy="1" input="SourceAlpha"/><feGaussianBlur stdDeviation="1" result="r"/><feFlood flood-color="#9b9b9b" flood-opacity="0.098"/><feComposite operator="in" in2="r"/><feComposite in="SourceGraphic"/></filter><filter id="s" x="166.605" y="137.388" width="15.137" height="13.213" filterUnits="userSpaceOnUse"><feOffset dx="1" dy="1" input="SourceAlpha"/><feGaussianBlur stdDeviation="1" result="t"/><feFlood flood-color="#9b9b9b" flood-opacity="0.098"/><feComposite operator="in" in2="t"/><feComposite in="SourceGraphic"/></filter><filter id="u" x="155.835" y="138.113" width="25.097" height="13.03" filterUnits="userSpaceOnUse"><feOffset dx="-1" dy="-1" input="SourceAlpha"/><feGaussianBlur stdDeviation="1" result="v"/><feFlood flood-color="#9b9b9b" flood-opacity="0.098"/><feComposite operator="in" in2="v"/><feComposite in="SourceGraphic"/></filter><filter id="w" x="160.117" y="134.609" width="13.42" height="12.411" filterUnits="userSpaceOnUse"><feOffset dx="-1" dy="-1" input="SourceAlpha"/><feGaussianBlur stdDeviation="1" result="x"/><feFlood flood-color="#9b9b9b" flood-opacity="0.098"/><feComposite operator="in" in2="x"/><feComposite in="SourceGraphic"/></filter><filter id="y" x="164.605" y="135.388" width="15.137" height="13.213" filterUnits="userSpaceOnUse"><feOffset dx="-1" dy="-1" input="SourceAlpha"/><feGaussianBlur stdDeviation="1" result="z"/><feFlood flood-color="#9b9b9b" flood-opacity="0.098"/><feComposite operator="in" in2="z"/><feComposite in="SourceGraphic"/></filter><filter id="aa" x="133.655" y="143.975" width="25.097" height="13.03" filterUnits="userSpaceOnUse"><feOffset dx="1" dy="-1" input="SourceAlpha"/><feGaussianBlur stdDeviation="1" result="ab"/><feFlood flood-color="#9b9b9b" flood-opacity="0.098"/><feComposite operator="in" in2="ab"/><feComposite in="SourceGraphic"/></filter><filter id="ac" x="137.936" y="140.471" width="13.42" height="12.411" filterUnits="userSpaceOnUse"><feOffset dx="1" dy="-1" input="SourceAlpha"/><feGaussianBlur stdDeviation="1" result="ad"/><feFlood flood-color="#9b9b9b" flood-opacity="0.098"/><feComposite operator="in" in2="ad"/><feComposite in="SourceGraphic"/></filter><filter id="ae" x="142.424" y="141.25" width="15.137" height="13.213" filterUnits="userSpaceOnUse"><feOffset dx="1" dy="-1" input="SourceAlpha"/><feGaussianBlur stdDeviation="1" result="af"/><feFlood flood-color="#9b9b9b" flood-opacity="0.098"/><feComposite operator="in" in2="af"/><feComposite in="SourceGraphic"/></filter><radialGradient id="ag" cx="0.5" cy="0.5" r="1.479" gradientTransform="matrix(0.696, 0.718, -0.686, 0.665, 0.495, -0.191)" gradientUnits="objectBoundingBox"><stop offset="0" stop-color="#f8e9c5"/><stop offset="1" stop-color="#fff"/></radialGradient><filter id="ah" x="81.218" y="129.007" width="32.767" height="15.847" filterUnits="userSpaceOnUse"><feOffset dx="1" dy="1" input="SourceAlpha"/><feGaussianBlur stdDeviation="1" result="ai"/><feFlood flood-color="#9b9b9b" flood-opacity="0.098"/><feComposite operator="in" in2="ai"/><feComposite in="SourceGraphic"/></filter><filter id="ak" x="87.218" y="124.107" width="16.396" height="15" filterUnits="userSpaceOnUse"><feOffset dx="1" dy="1" input="SourceAlpha"/><feGaussianBlur stdDeviation="1" result="al"/><feFlood flood-color="#9b9b9b" flood-opacity="0.098"/><feComposite operator="in" in2="al"/><feComposite in="SourceGraphic"/></filter><filter id="an" x="93.514" y="125.206" width="18.823" height="16.099" filterUnits="userSpaceOnUse"><feOffset dx="1" dy="1" input="SourceAlpha"/><feGaussianBlur stdDeviation="1" result="ao"/><feFlood flood-color="#9b9b9b" flood-opacity="0.098"/><feComposite operator="in" in2="ao"/><feComposite in="SourceGraphic"/></filter><filter id="aq" x="79.218" y="127.007" width="32.767" height="15.847" filterUnits="userSpaceOnUse"><feOffset dx="-1" dy="-1" input="SourceAlpha"/><feGaussianBlur stdDeviation="1" result="ar"/><feFlood flood-color="#9b9b9b" flood-opacity="0.098"/><feComposite operator="in" in2="ar"/><feComposite in="SourceGraphic"/></filter><filter id="at" x="85.218" y="122.107" width="16.396" height="15" filterUnits="userSpaceOnUse"><feOffset dx="-1" dy="-1" input="SourceAlpha"/><feGaussianBlur stdDeviation="1" result="au"/><feFlood flood-color="#9b9b9b" flood-opacity="0.098"/><feComposite operator="in" in2="au"/><feComposite in="SourceGraphic"/></filter><filter id="aw" x="91.514" y="123.206" width="18.823" height="16.099" filterUnits="userSpaceOnUse"><feOffset dx="-1" dy="-1" input="SourceAlpha"/><feGaussianBlur stdDeviation="1" result="ax"/><feFlood flood-color="#9b9b9b" flood-opacity="0.098"/><feComposite operator="in" in2="ax"/><feComposite in="SourceGraphic"/></filter><filter id="ay" x="32.3" y="179.521" width="39.706" height="18.732" filterUnits="userSpaceOnUse"><feOffset dx="1" dy="1" input="SourceAlpha"/><feGaussianBlur stdDeviation="1" result="az"/><feFlood flood-color="#9b9b9b" flood-opacity="0.098"/><feComposite operator="in" in2="az"/><feComposite in="SourceGraphic"/></filter><filter id="ba" x="39.856" y="173.201" width="19.099" height="17.633" filterUnits="userSpaceOnUse"><feOffset dx="1" dy="1" input="SourceAlpha"/><feGaussianBlur stdDeviation="1" result="bb"/><feFlood flood-color="#9b9b9b" flood-opacity="0.098"/><feComposite operator="in" in2="bb"/><feComposite in="SourceGraphic"/></filter><filter id="bc" x="47.779" y="174.621" width="22.142" height="19.052" filterUnits="userSpaceOnUse"><feOffset dx="1" dy="1" input="SourceAlpha"/><feGaussianBlur stdDeviation="1" result="bd"/><feFlood flood-color="#9b9b9b" flood-opacity="0.098"/><feComposite operator="in" in2="bd"/><feComposite in="SourceGraphic"/></filter><filter id="be" x="30.3" y="177.521" width="39.706" height="18.732" filterUnits="userSpaceOnUse"><feOffset dx="-1" dy="-1" input="SourceAlpha"/><feGaussianBlur stdDeviation="1" result="bf"/><feFlood flood-color="#9b9b9b" flood-opacity="0.098"/><feComposite operator="in" in2="bf"/><feComposite in="SourceGraphic"/></filter><filter id="bg" x="37.856" y="171.201" width="19.099" height="17.633" filterUnits="userSpaceOnUse"><feOffset dx="-1" dy="-1" input="SourceAlpha"/><feGaussianBlur stdDeviation="1" result="bh"/><feFlood flood-color="#9b9b9b" flood-opacity="0.098"/><feComposite operator="in" in2="bh"/><feComposite in="SourceGraphic"/></filter><filter id="bi" x="45.779" y="172.621" width="22.142" height="19.052" filterUnits="userSpaceOnUse"><feOffset dx="-1" dy="-1" input="SourceAlpha"/><feGaussianBlur stdDeviation="1" result="bj"/><feFlood flood-color="#9b9b9b" flood-opacity="0.098"/><feComposite operator="in" in2="bj"/><feComposite in="SourceGraphic"/></filter><linearGradient id="bk" y1="0.642" x2="0.813" y2="0.053" gradientUnits="objectBoundingBox"><stop offset="0" stop-color="#151500"/><stop offset="1" stop-color="#454500"/></linearGradient><linearGradient id="bl" x1="0.347" y1="0.62" x2="1.29" y2="0.414" xlink:href="#bk"/><linearGradient id="bm" x1="0.058" y1="0.887" x2="1.268" y2="0.24" xlink:href="#bk"/><linearGradient id="bn" x1="0" y1="0.642" x2="1.29" y2="0.414" xlink:href="#bk"/><clipPath id="bp"><rect width="256" height="256"/></clipPath></defs><g id="bo" class="a"><rect class="k" width="256" height="256"/><g class="b" transform="translate(26.39 35)"><circle class="c" cx="93.675" cy="93.675" r="93.675" transform="translate(6 -1)"/><g transform="translate(7.91 91.107)"><circle class="d" cx="8.782" cy="8.782" r="8.782" transform="translate(115.915 5.959)"/><g transform="translate(115.915 26.45)"><g transform="translate(0 0)"><g transform="translate(0)"><g class="al" transform="matrix(1, 0, 0, 1, -150.22, -152.56)"><ellipse class="e" cx="36.592" cy="12.075" rx="36.592" ry="12.075" transform="translate(150.22 167.19)"/></g><g class="ak" transform="matrix(1, 0, 0, 1, -150.22, -152.56)"><ellipse class="e" cx="12.807" cy="12.441" rx="12.807" ry="12.441" transform="translate(167.78 152.56)"/></g><g class="aj" transform="matrix(1, 0, 0, 1, -150.22, -152.56)"><ellipse class="e" cx="17.93" cy="13.539" rx="17.93" ry="13.539" transform="translate(183.15 156.22)"/></g></g><g transform="translate(0)"><g class="ai" transform="matrix(1, 0, 0, 1, -150.22, -152.56)"><ellipse class="e" cx="36.592" cy="12.075" rx="36.592" ry="12.075" transform="translate(150.22 167.19)"/></g><g class="ah" transform="matrix(1, 0, 0, 1, -150.22, -152.56)"><ellipse class="e" cx="12.807" cy="12.441" rx="12.807" ry="12.441" transform="translate(167.78 152.56)"/></g><g class="ag" transform="matrix(1, 0, 0, 1, -150.22, -152.56)"><ellipse class="e" cx="17.93" cy="13.539" rx="17.93" ry="13.539" transform="translate(183.15 156.22)"/></g></g></g><ellipse class="e" cx="36.592" cy="12.075" rx="36.592" ry="12.075" transform="translate(0 14.637)"/><ellipse class="e" cx="12.807" cy="12.441" rx="12.807" ry="12.441" transform="translate(17.564 0)"/><ellipse class="e" cx="17.93" cy="13.539" rx="17.93" ry="13.539" transform="translate(32.933 3.659)"/></g><g transform="translate(125.535 12.502)"><g transform="translate(0 0)"><g class="af" transform="matrix(1, 0, 0, 1, -159.84, -138.61)"><ellipse class="e" cx="9.548" cy="3.515" rx="9.548" ry="3.515" transform="translate(159.84 142.11)"/></g><g class="ae" transform="matrix(1, 0, 0, 1, -159.84, -138.61)"><ellipse class="e" cx="3.71" cy="3.206" rx="3.71" ry="3.206" transform="translate(164.12 138.61)"/></g><g class="ad" transform="matrix(1, 0, 0, 1, -159.84, -138.61)"><ellipse class="e" cx="4.569" cy="3.607" rx="4.569" ry="3.607" transform="translate(168.6 139.39)"/></g><g class="ac" transform="matrix(1, 0, 0, 1, -159.84, -138.61)"><ellipse class="e" cx="9.548" cy="3.515" rx="9.548" ry="3.515" transform="translate(159.84 142.11)"/></g><g class="ab" transform="matrix(1, 0, 0, 1, -159.84, -138.61)"><ellipse class="e" cx="3.71" cy="3.206" rx="3.71" ry="3.206" transform="translate(164.12 138.61)"/></g><g class="aa" transform="matrix(1, 0, 0, 1, -159.84, -138.61)"><ellipse class="e" cx="4.569" cy="3.607" rx="4.569" ry="3.607" transform="translate(168.6 139.39)"/></g></g><ellipse class="e" cx="9.548" cy="3.515" rx="9.548" ry="3.515" transform="translate(0 3.504)"/><ellipse class="e" cx="3.71" cy="3.206" rx="3.71" ry="3.206" transform="translate(4.281 0)"/><ellipse class="e" cx="4.569" cy="3.607" rx="4.569" ry="3.607" transform="translate(8.769 0.779)"/></g><g transform="translate(101.355 18.364)"><g transform="translate(0 0)"><g class="z" transform="matrix(1, 0, 0, 1, -135.65, -144.47)"><ellipse class="e" cx="9.548" cy="3.515" rx="9.548" ry="3.515" transform="translate(135.65 147.98)"/></g><g class="y" transform="matrix(1, 0, 0, 1, -135.65, -144.47)"><ellipse class="e" cx="3.71" cy="3.206" rx="3.71" ry="3.206" transform="translate(139.94 144.47)"/></g><g class="x" transform="matrix(1, 0, 0, 1, -135.65, -144.47)"><ellipse class="e" cx="4.569" cy="3.607" rx="4.569" ry="3.607" transform="translate(144.42 145.25)"/></g></g><ellipse class="e" cx="9.548" cy="3.515" rx="9.548" ry="3.515" transform="translate(0 3.504)"/><ellipse class="e" cx="3.71" cy="3.206" rx="3.71" ry="3.206" transform="translate(4.281 0)"/><ellipse class="e" cx="4.569" cy="3.607" rx="4.569" ry="3.607" transform="translate(8.769 0.779)"/></g><g transform="translate(48.918 0)"><g transform="translate(0)"><g class="w" transform="matrix(1, 0, 0, 1, -83.22, -126.11)"><ellipse class="f" cx="13.384" cy="4.923" rx="13.384" ry="4.923" transform="translate(83.22 131.01)"/></g><g class="v" transform="matrix(1, 0, 0, 1, -83.22, -126.11)"><ellipse class="f" cx="5.198" cy="4.5" rx="5.198" ry="4.5" transform="translate(89.22 126.11)"/></g><g class="u" transform="matrix(1, 0, 0, 1, -83.22, -126.11)"><ellipse class="f" cx="6.412" cy="5.049" rx="6.412" ry="5.049" transform="translate(95.51 127.21)"/></g><g class="t" transform="matrix(1, 0, 0, 1, -83.22, -126.11)"><ellipse class="f" cx="13.384" cy="4.923" rx="13.384" ry="4.923" transform="translate(83.22 131.01)"/></g><g class="s" transform="matrix(1, 0, 0, 1, -83.22, -126.11)"><ellipse class="f" cx="5.198" cy="4.5" rx="5.198" ry="4.5" transform="translate(89.22 126.11)"/></g><g class="r" transform="matrix(1, 0, 0, 1, -83.22, -126.11)"><ellipse class="f" cx="6.412" cy="5.049" rx="6.412" ry="5.049" transform="translate(95.51 127.21)"/></g></g><ellipse class="e" cx="13.384" cy="4.923" rx="13.384" ry="4.923" transform="translate(0 4.9)"/><ellipse class="e" cx="5.198" cy="4.5" rx="5.198" ry="4.5" transform="translate(6)"/><ellipse class="e" cx="6.412" cy="5.049" rx="6.412" ry="5.049" transform="translate(12.296 1.099)"/></g><g transform="translate(0 49.094)"><g transform="translate(0 0)"><g class="q" transform="matrix(1, 0, 0, 1, -34.3, -175.2)"><ellipse class="e" cx="16.853" cy="6.366" rx="16.853" ry="6.366" transform="translate(34.3 181.52)"/></g><g class="p" transform="matrix(1, 0, 0, 1, -34.3, -175.2)"><ellipse class="e" cx="6.549" cy="5.817" rx="6.549" ry="5.817" transform="translate(41.86 175.2)"/></g><g class="o" transform="matrix(1, 0, 0, 1, -34.3, -175.2)"><ellipse class="e" cx="8.071" cy="6.526" rx="8.071" ry="6.526" transform="translate(49.78 176.62)"/></g><g class="n" transform="matrix(1, 0, 0, 1, -34.3, -175.2)"><ellipse class="e" cx="16.853" cy="6.366" rx="16.853" ry="6.366" transform="translate(34.3 181.52)"/></g><g class="m" transform="matrix(1, 0, 0, 1, -34.3, -175.2)"><ellipse class="e" cx="6.549" cy="5.817" rx="6.549" ry="5.817" transform="translate(41.86 175.2)"/></g><g class="l" transform="matrix(1, 0, 0, 1, -34.3, -175.2)"><ellipse class="e" cx="8.071" cy="6.526" rx="8.071" ry="6.526" transform="translate(49.78 176.62)"/></g></g><ellipse class="e" cx="16.853" cy="6.366" rx="16.853" ry="6.366" transform="translate(0 6.32)"/><ellipse class="e" cx="6.549" cy="5.817" rx="6.549" ry="5.817" transform="translate(7.556 0)"/><ellipse class="e" cx="8.071" cy="6.526" rx="8.071" ry="6.526" transform="translate(15.479 1.42)"/></g></g><g transform="translate(33.386 92.927)"><g transform="translate(0 0)"><path class="g" d="M0,51.573C0,23.09,5.72,0,12.775,0S25.55,23.09,25.55,51.573q0,1.865-.032,3.695A93.785,93.785,0,0,1,.972,71.336,194.658,194.658,0,0,1,0,51.573Z" transform="translate(103.665 13.903)"/><path class="h" d="M0,47.608C0,21.315,5.927,0,13.237,0S26.473,21.315,26.473,47.608c0,2.922-.073,5.782-.213,8.559a93.1,93.1,0,0,1-25.228,9.9A159.97,159.97,0,0,1,0,47.608Z" transform="translate(86.483 24.945)"/><path class="i" d="M.025,82.313C.008,81.373,0,80.424,0,79.476,0,35.583,17.668,0,39.463,0S78.925,35.583,78.925,79.476q0,3.749-.169,7.411a93.408,93.408,0,0,1-34.444,6.536A93.271,93.271,0,0,1,.025,82.313Z" transform="translate(21.977 0)"/><path class="j" d="M0,34.793C.981,15.228,8.629,0,17.918,0c9.954,0,18.024,17.488,18.024,39.06a78.173,78.173,0,0,1-1.91,17.519A93.752,93.752,0,0,1,0,34.793Z" transform="translate(0 31.142)"/></g></g></g></g></svg>