<svg xmlns="http://www.w3.org/2000/svg" width="182" height="182" viewBox="0 0 182 182"><g transform="translate(-37 -37)"><g transform="translate(37 37)" fill="#281e12" stroke="#fff" stroke-width="8"><circle cx="91" cy="91" r="91" stroke="none"/><circle cx="91" cy="91" r="87" fill="none"/></g><path d="M448.082,917.491C448.982,893.1,457.108,874,467,874c4.907,0,9.379,4.7,12.75,12.409C483.9,861.1,494.982,843,508,843c13.752,0,25.343,20.206,28.886,47.759C539.615,872.112,544.025,860,549,860c7.323,0,13.42,26.238,14.736,60.939a91.013,91.013,0,0,1-115.654-3.448Z" transform="translate(-380 -721)" fill="#fff"/><circle cx="11" cy="11" r="11" transform="translate(145 106)" fill="#fff"/></g></svg>