<svg xmlns="http://www.w3.org/2000/svg" width="100%" height="100%" viewBox="0 0 182 182"><defs><style>.a{fill:#2e2e00;stroke:#fff;stroke-width:8px;}.b{fill:#fff;}.c{stroke:none;}.d{fill:none;}</style></defs><g transform="translate(-38 -37)"><g class="a" transform="translate(38 37)"><circle class="c" cx="91" cy="91" r="91"/><circle class="d" cx="91" cy="91" r="87"/></g><path class="b" d="M448.081,926.491Q448,924.273,448,922c0-26.51,8.507-48,19-48,4.907,0,9.379,4.7,12.75,12.409C483.9,861.1,494.982,843,508,843c11.842,0,22.082,14.981,26.96,36.735C538.04,867.45,542.079,860,546.5,860c8.945,0,16.322,30.486,17.372,69.834a91.013,91.013,0,0,1-115.79-3.343Z" transform="translate(-379 -730)"/><circle class="b" cx="11" cy="11" r="11" transform="translate(151 84)"/></g></svg>