<svg xmlns="http://www.w3.org/2000/svg" width="90.406" height="76.945" viewBox="0 0 90.406 76.945"><g transform="translate(-83.3 -95.9)"><path d="M40.754,13.1c6.212.114,7.809.007,15.493,0l32.72,55.321C85.219,74.845,85.163,75.01,81.22,82H15.78C12.021,75.543,12,74.734,8.033,68.418Z" transform="translate(80 88)" fill="#fce279"/><g transform="translate(10.4 -3)"><circle cx="8.5" cy="8.5" r="8.5" transform="translate(86 144)" fill="#fce279"/><circle cx="8.5" cy="8.5" r="8.5" transform="translate(134 144)" fill="#fce279"/></g><g transform="translate(64 65)"><ellipse cx="8.069" cy="7.25" rx="8.069" ry="7.25" transform="translate(56.431 30.9)" fill="#fce279"/><ellipse cx="8.069" cy="7.25" rx="8.069" ry="7.25" transform="matrix(0.485, -0.875, 0.875, 0.485, 89.2, 100.815)" fill="#fce279"/><ellipse cx="8.069" cy="7.25" rx="8.069" ry="7.25" transform="translate(27.124 107.845) rotate(-119)" fill="#fce279"/></g><circle cx="4" cy="4" r="4" transform="translate(124 155)" fill="#281e12"/><circle cx="4" cy="4" r="4" transform="translate(124 144)" fill="#281e12"/><circle cx="6" cy="6" r="6" transform="translate(122 117)" fill="#281e12"/><path d="M0,0H12L10,25H2.008Z" transform="translate(122 123)" fill="#281e12"/></g></svg>