<svg xmlns="http://www.w3.org/2000/svg" width="100%" height="100%" viewBox="0 0 90.406 76.945"><defs><style>.a{fill:#fce279;}.b{fill:#2e2e00;}</style></defs><g transform="translate(-83.3 -95.9)"><path class="a" d="M40.754,13.1c6.212.114,7.809.007,15.493,0l32.72,55.321C85.219,74.845,85.163,75.01,81.22,82H15.78C12.021,75.543,12,74.734,8.033,68.418Z" transform="translate(80 88)"/><g transform="translate(64 65)"><ellipse class="a" cx="8.069" cy="7.25" rx="8.069" ry="7.25" transform="translate(56.431 30.9)"/><ellipse class="a" cx="8.069" cy="7.25" rx="8.069" ry="7.25" transform="matrix(0.485, -0.875, 0.875, 0.485, 89.2, 100.815)"/><ellipse class="a" cx="8.069" cy="7.25" rx="8.069" ry="7.25" transform="translate(27.124 107.845) rotate(-119)"/></g><circle class="b" cx="4" cy="4" r="4" transform="translate(124 155)"/><circle class="b" cx="4" cy="4" r="4" transform="translate(124 144)"/><circle class="b" cx="6" cy="6" r="6" transform="translate(122 117)"/><path class="b" d="M0,0H12L10,25H2.008Z" transform="translate(122 123)"/></g></svg>