<svg xmlns="http://www.w3.org/2000/svg" width="100%" height="100%" viewBox="0 0 182 182"><defs><style>.a{fill:#2e2e00;stroke:#fff;stroke-width:8px;}.b{fill:#fff;}.c{stroke:none;}.d{fill:none;}</style></defs><g transform="translate(-166.179 -158.179)"><g class="a" transform="translate(166.179 158.179)"><circle class="c" cx="91" cy="91" r="91"/><circle class="d" cx="91" cy="91" r="87"/></g><path class="b" d="M62.281,92.242A91.632,91.632,0,0,1,43.513,90.3a90.535,90.535,0,0,1-17.44-5.551H98.49A90.535,90.535,0,0,1,81.05,90.3,91.636,91.636,0,0,1,62.281,92.242Zm47.7-13.488h-95.4c-1.807-1.114-3.6-2.307-5.322-3.546H115.3c-1.733,1.245-3.524,2.437-5.322,3.546Zm12.813-9.545H2.308c-.033-.892-.049-1.784-.049-2.653,0-.266,0-.536,0-.8H123.042c.007.6.011,1.172.011,1.705,0,.508,0,1.021-.008,1.526l-.025.023-.225.2Zm.04-9.454H2.584C3.317,52.176,5.3,45.276,8.157,40.322a19.237,19.237,0,0,1,4.749-5.716A9.109,9.109,0,0,1,18.5,32.538c3.121,0,6.152,1.859,8.765,5.377,2.6-8.211,6.584-15.146,11.52-20.055,5.073-5.045,10.941-7.711,16.971-7.711s11.888,2.661,16.957,7.7c4.933,4.9,8.916,11.823,11.519,20.021,1.854-5.969,4.011-9.123,6.237-9.123,1.558,0,3.068,1.516,4.488,4.507A54.9,54.9,0,0,1,98.6,45.525a52.388,52.388,0,0,1,4.712-14.7,14.735,14.735,0,0,1,3.107-4.12,5.278,5.278,0,0,1,3.449-1.458c1.58,0,3.125.885,4.592,2.631a24.836,24.836,0,0,1,3.889,7.26c2.34,6.3,3.933,15.041,4.485,24.612Z" transform="translate(195.023 247.926)"/><circle class="b" cx="11" cy="11" r="11" transform="translate(271.179 220.179)"/><g transform="translate(287.634 251.492)"><rect class="b" width="38" height="12" rx="6" transform="translate(-0.455 8.687)"/><rect class="b" width="10" height="18" rx="5" transform="translate(19.545 -2.313)"/><rect class="b" width="11" height="12" rx="5.5" transform="translate(8.545 2.687)"/></g><g transform="translate(189.634 276.492)"><rect class="b" width="30" height="10" rx="5" transform="translate(-0.455 5.687)"/><rect class="b" width="8" height="14" rx="4" transform="translate(15.545 -2.313)"/><rect class="b" width="9" height="9" rx="4.5" transform="translate(6.545 1.687)"/></g><g transform="translate(219.634 239.492)"><rect class="b" width="29" height="10" rx="5" transform="translate(-0.455 5.687)"/><rect class="b" width="8" height="14" rx="4" transform="translate(14.545 -2.313)"/><rect class="b" width="8" height="9" rx="4" transform="translate(6.545 1.687)"/></g></g></svg>